<?xml version="1.0" encoding="UTF-8"?>
<!DOCTYPE svg PUBLIC "-//W3C//DTD SVG 1.1//EN" "http://www.w3.org/Graphics/SVG/1.1/DTD/svg11.dtd">
<svg xmlns="http://www.w3.org/2000/svg" version="1.1" width="500px" height="500px" style="shape-rendering:geometricPrecision; text-rendering:geometricPrecision; image-rendering:optimizeQuality; fill-rule:evenodd; clip-rule:evenodd" xmlns:xlink="http://www.w3.org/1999/xlink">
<g><path style="opacity:0.004" fill="#000000" d="M 366.5,29.5 C 367.833,30.1667 367.833,30.1667 366.5,29.5 Z"/></g>
<g><path style="opacity:0.004" fill="#000000" d="M 90.5,40.5 C 91.8333,41.1667 91.8333,41.1667 90.5,40.5 Z"/></g>
<g><path style="opacity:0.004" fill="#000000" d="M 338.5,42.5 C 339.833,43.1667 339.833,43.1667 338.5,42.5 Z"/></g>
<g><path style="opacity:0.004" fill="#000000" d="M 36.5,44.5 C 37.8333,45.1667 37.8333,45.1667 36.5,44.5 Z"/></g>
<g><path style="opacity:0.004" fill="#000000" d="M 226.5,50.5 C 227.833,51.1667 227.833,51.1667 226.5,50.5 Z"/></g>
<g><path style="opacity:0.004" fill="#000000" d="M 160.5,64.5 C 161.833,65.1667 161.833,65.1667 160.5,64.5 Z"/></g>
<g><path style="opacity:0.004" fill="#000000" d="M 428.5,64.5 C 429.833,65.1667 429.833,65.1667 428.5,64.5 Z"/></g>
<g><path style="opacity:0.004" fill="#000000" d="M 224.5,66.5 C 225.833,67.1667 225.833,67.1667 224.5,66.5 Z"/></g>
<g><path style="opacity:0.004" fill="#000000" d="M 72.5,72.5 C 73.8333,73.1667 73.8333,73.1667 72.5,72.5 Z"/></g>
<g><path style="opacity:0.004" fill="#000000" d="M 472.5,72.5 C 473.833,73.1667 473.833,73.1667 472.5,72.5 Z"/></g>
<g><path style="opacity:0.004" fill="#000000" d="M 26.5,85.5 C 27.8333,86.1667 27.8333,86.1667 26.5,85.5 Z"/></g>
<g><path style="opacity:0.004" fill="#000000" d="M 387.5,96.5 C 388.833,97.1667 388.833,97.1667 387.5,96.5 Z"/></g>
<g><path style="opacity:0.004" fill="#000000" d="M 83.5,113.5 C 84.8333,114.167 84.8333,114.167 83.5,113.5 Z"/></g>
<g><path style="opacity:0.004" fill="#000000" d="M 43.5,115.5 C 44.8333,116.167 44.8333,116.167 43.5,115.5 Z"/></g>
<g><path style="opacity:0.004" fill="#000000" d="M 187.5,116.5 C 188.833,117.167 188.833,117.167 187.5,116.5 Z"/></g>
<g><path style="opacity:0.004" fill="#000000" d="M 169.5,118.5 C 170.833,119.167 170.833,119.167 169.5,118.5 Z"/></g>
<g><path style="opacity:0.004" fill="#000000" d="M 195.5,118.5 C 196.833,119.167 196.833,119.167 195.5,118.5 Z"/></g>
<g><path style="opacity:0.796" fill="#a5572f" d="M 238.5,120.5 C 229.189,116.552 221.189,118.219 214.5,125.5C 218.526,117.825 224.859,114.992 233.5,117C 235.584,117.697 237.251,118.864 238.5,120.5 Z"/></g>
<g><path style="opacity:0.957" fill="#d86928" d="M 238.5,120.5 C 240.017,120.511 241.184,121.177 242,122.5C 243.421,124.405 244.588,126.405 245.5,128.5C 245.5,129.167 245.5,129.833 245.5,130.5C 243.806,129.473 242.473,128.139 241.5,126.5C 238.527,124.502 235.527,122.502 232.5,120.5C 230.034,119.366 227.367,119.199 224.5,120C 220.602,123.729 216.935,127.562 213.5,131.5C 213.517,129.435 213.85,127.435 214.5,125.5C 221.189,118.219 229.189,116.552 238.5,120.5 Z"/></g>
<g><path style="opacity:0.004" fill="#000000" d="M 470.5,121.5 C 471.833,122.167 471.833,122.167 470.5,121.5 Z"/></g>
<g><path style="opacity:1" fill="#fa6402" d="M 232.5,120.5 C 235.527,122.502 238.527,124.502 241.5,126.5C 241.704,129.518 242.037,132.518 242.5,135.5C 241.325,135.281 240.325,135.614 239.5,136.5C 240.577,138.729 241.244,141.063 241.5,143.5C 235.5,143.5 229.5,143.5 223.5,143.5C 222.75,140.433 222.084,137.6 221.5,135C 224.039,133.195 225.039,130.695 224.5,127.5C 227.999,127.741 228.332,126.908 225.5,125C 225.727,123.865 226.06,122.698 226.5,121.5C 228.409,120.652 230.409,120.318 232.5,120.5 Z"/></g>
<g><path style="opacity:0.541" fill="#9f542a" d="M 214.5,125.5 C 213.85,127.435 213.517,129.435 213.5,131.5C 212.167,132.833 210.833,134.167 209.5,135.5C 210.132,131.569 211.799,128.235 214.5,125.5 Z"/></g>
<g><path style="opacity:1" fill="#f86906" d="M 232.5,120.5 C 230.409,120.318 228.409,120.652 226.5,121.5C 226.06,122.698 225.727,123.865 225.5,125C 228.332,126.908 227.999,127.741 224.5,127.5C 225.039,130.695 224.039,133.195 221.5,135C 222.084,137.6 222.75,140.433 223.5,143.5C 229.5,143.5 235.5,143.5 241.5,143.5C 241.244,141.063 240.577,138.729 239.5,136.5C 240.325,135.614 241.325,135.281 242.5,135.5C 242.037,132.518 241.704,129.518 241.5,126.5C 242.473,128.139 243.806,129.473 245.5,130.5C 246.925,134.378 247.925,138.378 248.5,142.5C 249.084,145.983 248.251,148.983 246,151.5C 244.562,150.282 242.895,149.615 241,149.5C 233.476,150.783 225.976,150.783 218.5,149.5C 215.466,152.312 212.466,151.979 209.5,148.5C 209.167,147.833 208.833,147.167 208.5,146.5C 209.244,142.881 209.577,139.215 209.5,135.5C 210.833,134.167 212.167,132.833 213.5,131.5C 216.935,127.562 220.602,123.729 224.5,120C 227.367,119.199 230.034,119.366 232.5,120.5 Z"/></g>
<g><path style="opacity:0.004" fill="#000000" d="M 132.5,137.5 C 133.833,138.167 133.833,138.167 132.5,137.5 Z"/></g>
<g><path style="opacity:0.004" fill="#000000" d="M 153.5,140.5 C 154.833,141.167 154.833,141.167 153.5,140.5 Z"/></g>
<g><path style="opacity:0.004" fill="#000000" d="M 325.5,141.5 C 326.833,142.167 326.833,142.167 325.5,141.5 Z"/></g>
<g><path style="opacity:0.62" fill="#8e4220" d="M 209.5,135.5 C 209.577,139.215 209.244,142.881 208.5,146.5C 208.167,146.5 207.833,146.5 207.5,146.5C 207.251,142.542 207.918,138.876 209.5,135.5 Z"/></g>
<g><path style="opacity:0.616" fill="#b35f32" d="M 245.5,128.5 C 248.684,132.538 250.351,137.205 250.5,142.5C 250.5,144.167 250.5,145.833 250.5,147.5C 250.167,147.5 249.833,147.5 249.5,147.5C 249.784,145.585 249.451,143.919 248.5,142.5C 247.925,138.378 246.925,134.378 245.5,130.5C 245.5,129.833 245.5,129.167 245.5,128.5 Z"/></g>
<g><path style="opacity:0.004" fill="#000000" d="M 253.5,150.5 C 254.833,151.167 254.833,151.167 253.5,150.5 Z"/></g>
<g><path style="opacity:1" fill="#fa7d03" d="M 248.5,142.5 C 249.451,143.919 249.784,145.585 249.5,147.5C 249.5,149.5 249.5,151.5 249.5,153.5C 248.833,153.5 248.5,153.833 248.5,154.5C 247.542,154.953 246.708,155.619 246,156.5C 244.846,155.257 243.512,154.257 242,153.5C 236.593,154.525 231.093,155.192 225.5,155.5C 221.582,154.847 217.749,154.847 214,155.5C 212.213,155.241 210.713,154.575 209.5,153.5C 209.5,151.833 209.5,150.167 209.5,148.5C 212.466,151.979 215.466,152.312 218.5,149.5C 225.976,150.783 233.476,150.783 241,149.5C 242.895,149.615 244.562,150.282 246,151.5C 248.251,148.983 249.084,145.983 248.5,142.5 Z"/></g>
<g><path style="opacity:0.004" fill="#000000" d="M 171.5,153.5 C 172.833,154.167 172.833,154.167 171.5,153.5 Z"/></g>
<g><path style="opacity:0.004" fill="#000000" d="M 423.5,153.5 C 424.833,154.167 424.833,154.167 423.5,153.5 Z"/></g>
<g><path style="opacity:0.914" fill="#d88b38" d="M 207.5,146.5 C 207.833,146.5 208.167,146.5 208.5,146.5C 208.833,147.167 209.167,147.833 209.5,148.5C 209.5,150.167 209.5,151.833 209.5,153.5C 209.5,155.5 209.5,157.5 209.5,159.5C 209.5,161.167 209.5,162.833 209.5,164.5C 209.5,166.5 209.5,168.5 209.5,170.5C 209.5,171.167 209.5,171.833 209.5,172.5C 209.167,172.5 208.833,172.5 208.5,172.5C 208.5,172.167 208.5,171.833 208.5,171.5C 208.116,163.169 207.782,154.836 207.5,146.5 Z"/></g>
<g><path style="opacity:1" fill="#fb8904" d="M 209.5,153.5 C 210.713,154.575 212.213,155.241 214,155.5C 217.749,154.847 221.582,154.847 225.5,155.5C 231.093,155.192 236.593,154.525 242,153.5C 243.512,154.257 244.846,155.257 246,156.5C 246.708,155.619 247.542,154.953 248.5,154.5C 249.174,160.578 247.007,161.911 242,158.5C 235.486,159.147 228.986,159.814 222.5,160.5C 219.682,157.987 216.849,157.987 214,160.5C 212.989,159.663 211.822,159.33 210.5,159.5C 210.167,159.5 209.833,159.5 209.5,159.5C 209.5,157.5 209.5,155.5 209.5,153.5 Z"/></g>
<g><path style="opacity:0.157" fill="#734219" d="M 250.5,142.5 C 251.166,146.319 251.499,150.319 251.5,154.5C 251.695,160.417 251.029,166.084 249.5,171.5C 250.276,163.525 250.61,155.525 250.5,147.5C 250.5,145.833 250.5,144.167 250.5,142.5 Z"/></g>
<g><path style="opacity:1" fill="#fb9704" d="M 249.5,153.5 C 249.813,157.042 249.479,160.375 248.5,163.5C 247.542,163.953 246.708,164.619 246,165.5C 245.261,164.426 244.261,163.759 243,163.5C 231.907,164.353 221.073,164.353 210.5,163.5C 210.5,162.167 210.5,160.833 210.5,159.5C 211.822,159.33 212.989,159.663 214,160.5C 216.849,157.987 219.682,157.987 222.5,160.5C 228.986,159.814 235.486,159.147 242,158.5C 247.007,161.911 249.174,160.578 248.5,154.5C 248.5,153.833 248.833,153.5 249.5,153.5 Z"/></g>
<g><path style="opacity:0.004" fill="#000000" d="M 366.5,163.5 C 367.833,164.167 367.833,164.167 366.5,163.5 Z"/></g>
<g><path style="opacity:0.102" fill="#5f3419" d="M 207.5,146.5 C 207.782,154.836 208.116,163.169 208.5,171.5C 206.613,163.207 206.28,154.873 207.5,146.5 Z"/></g>
<g><path style="opacity:1" fill="#fca503" d="M 209.5,159.5 C 209.833,159.5 210.167,159.5 210.5,159.5C 210.5,160.833 210.5,162.167 210.5,163.5C 221.073,164.353 231.907,164.353 243,163.5C 244.261,163.759 245.261,164.426 246,165.5C 246.708,164.619 247.542,163.953 248.5,163.5C 248.5,164.167 248.5,164.833 248.5,165.5C 247.781,167.091 246.781,168.591 245.5,170C 244.551,170.617 243.718,170.451 243,169.5C 242.667,170.167 242.333,170.833 242,171.5C 233.887,170.364 225.887,170.364 218,171.5C 216.527,171.097 215.194,170.43 214,169.5C 213.586,169.957 213.086,170.291 212.5,170.5C 211.482,168.406 210.482,166.406 209.5,164.5C 209.5,162.833 209.5,161.167 209.5,159.5 Z"/></g>
<g><path style="opacity:0.765" fill="#cb9141" d="M 249.5,147.5 C 249.833,147.5 250.167,147.5 250.5,147.5C 250.61,155.525 250.276,163.525 249.5,171.5C 249.435,174.428 248.768,177.095 247.5,179.5C 247.5,177.833 247.5,176.167 247.5,174.5C 247.704,171.482 248.037,168.482 248.5,165.5C 248.5,164.833 248.5,164.167 248.5,163.5C 249.479,160.375 249.813,157.042 249.5,153.5C 249.5,151.5 249.5,149.5 249.5,147.5 Z"/></g>
<g><path style="opacity:0.004" fill="#000000" d="M 46.5,168.5 C 47.8333,169.167 47.8333,169.167 46.5,168.5 Z"/></g>
<g><path style="opacity:0.004" fill="#000000" d="M 126.5,171.5 C 127.833,172.167 127.833,172.167 126.5,171.5 Z"/></g>
<g><path style="opacity:0.004" fill="#000000" d="M 97.5,173.5 C 98.8333,174.167 98.8333,174.167 97.5,173.5 Z"/></g>
<g><path style="opacity:0.004" fill="#000000" d="M 193.5,173.5 C 194.833,174.167 194.833,174.167 193.5,173.5 Z"/></g>
<g><path style="opacity:1" fill="#fbba04" d="M 209.5,164.5 C 210.482,166.406 211.482,168.406 212.5,170.5C 213.086,170.291 213.586,169.957 214,169.5C 215.194,170.43 216.527,171.097 218,171.5C 225.887,170.364 233.887,170.364 242,171.5C 242.333,170.833 242.667,170.167 243,169.5C 243.718,170.451 244.551,170.617 245.5,170C 246.781,168.591 247.781,167.091 248.5,165.5C 248.037,168.482 247.704,171.482 247.5,174.5C 245.55,176.43 244.217,178.763 243.5,181.5C 235.616,180.284 227.783,180.284 220,181.5C 218.953,176.208 216.786,175.541 213.5,179.5C 212.686,177.234 212.186,174.9 212,172.5C 211.292,171.619 210.458,170.953 209.5,170.5C 209.5,168.5 209.5,166.5 209.5,164.5 Z"/></g>
<g><path style="opacity:0.212" fill="#788040" d="M 261.5,179.5 C 262.449,178.848 263.615,178.514 265,178.5C 267.008,178.307 268.508,178.974 269.5,180.5C 266.904,179.735 264.237,179.401 261.5,179.5 Z"/></g>
<g><path style="opacity:0.031" fill="#5a3e15" d="M 208.5,172.5 C 208.833,172.5 209.167,172.5 209.5,172.5C 210.585,176.76 211.252,181.094 211.5,185.5C 209.74,181.453 208.74,177.12 208.5,172.5 Z"/></g>
<g><path style="opacity:0.933" fill="#da7133" d="M 199.5,184.5 C 191.171,179.145 187.171,181.478 187.5,191.5C 187.5,192.167 187.5,192.833 187.5,193.5C 186.357,190.024 186.19,186.358 187,182.5C 191.749,178.566 195.916,179.233 199.5,184.5 Z"/></g>
<g><path style="opacity:1" fill="#f4ca12" d="M 209.5,170.5 C 210.458,170.953 211.292,171.619 212,172.5C 212.186,174.9 212.686,177.234 213.5,179.5C 216.786,175.541 218.953,176.208 220,181.5C 227.783,180.284 235.616,180.284 243.5,181.5C 244.217,178.763 245.55,176.43 247.5,174.5C 247.5,176.167 247.5,177.833 247.5,179.5C 246.203,181.371 245.203,183.371 244.5,185.5C 244.34,181.764 243.507,181.764 242,185.5C 234.709,184.987 227.542,184.654 220.5,184.5C 218.087,187.377 216.253,187.044 215,183.5C 214.333,184.833 213.667,184.833 213,183.5C 212.505,185.473 212.338,187.473 212.5,189.5C 211.566,188.432 211.232,187.099 211.5,185.5C 211.252,181.094 210.585,176.76 209.5,172.5C 209.5,171.833 209.5,171.167 209.5,170.5 Z"/></g>
<g><path style="opacity:1" fill="#f6690b" d="M 199.5,184.5 C 199.678,185.695 200.011,186.862 200.5,188C 197.89,190.437 194.89,192.271 191.5,193.5C 189.927,193.248 188.594,192.582 187.5,191.5C 187.171,181.478 191.171,179.145 199.5,184.5 Z"/></g>
<g><path style="opacity:0.22" fill="#87772c" d="M 256.5,183.5 C 256.573,185.027 255.906,186.027 254.5,186.5C 254.427,184.973 255.094,183.973 256.5,183.5 Z"/></g>
<g><path style="opacity:1" fill="#f9f718" d="M 258.5,181.5 C 267.993,179.329 271.993,182.996 270.5,192.5C 269.043,194.752 267.543,194.419 266,191.5C 265.667,191.833 265.333,192.167 265,192.5C 262.064,190.686 258.897,189.353 255.5,188.5C 257.738,186.742 258.738,184.408 258.5,181.5 Z"/></g>
<g><path style="opacity:0.506" fill="#914b26" d="M 201.5,185.5 C 200.833,185.167 200.167,184.833 199.5,184.5C 195.916,179.233 191.749,178.566 187,182.5C 186.19,186.358 186.357,190.024 187.5,193.5C 187.5,194.167 187.5,194.833 187.5,195.5C 187.5,196.5 187.5,197.5 187.5,198.5C 184.819,193.92 183.985,188.92 185,183.5C 187.072,178.857 190.572,177.357 195.5,179C 198.409,180.406 200.409,182.572 201.5,185.5 Z"/></g>
<g><path style="opacity:0.286" fill="#847129" d="M 247.5,179.5 C 247.101,183.116 246.101,186.45 244.5,189.5C 244.5,188.833 244.5,188.167 244.5,187.5C 244.5,186.833 244.5,186.167 244.5,185.5C 245.203,183.371 246.203,181.371 247.5,179.5 Z"/></g>
<g><path style="opacity:0.196" fill="#4d4915" d="M 271.5,183.5 C 272.641,186.64 272.808,189.973 272,193.5C 271.626,195.491 270.793,197.158 269.5,198.5C 269.5,198.167 269.5,197.833 269.5,197.5C 270.038,195.883 270.371,194.216 270.5,192.5C 271.477,189.713 271.81,186.713 271.5,183.5 Z"/></g>
<g><path style="opacity:0.004" fill="#000000" d="M 446.5,187.5 C 447.833,188.167 447.833,188.167 446.5,187.5 Z"/></g>
<g><path style="opacity:1" fill="#fae216" d="M 244.5,185.5 C 244.5,186.167 244.5,186.833 244.5,187.5C 241.925,189.845 240.925,192.845 241.5,196.5C 241.5,196.833 241.5,197.167 241.5,197.5C 240.272,198.306 239.272,199.306 238.5,200.5C 238.799,198.396 238.466,196.396 237.5,194.5C 233.843,196.438 231.843,195.438 231.5,191.5C 229.284,191.275 227.617,192.108 226.5,194C 224.765,194.651 223.098,194.485 221.5,193.5C 218.013,194.522 216.68,196.855 217.5,200.5C 216.857,198.924 215.857,197.59 214.5,196.5C 214.829,193.772 214.163,191.438 212.5,189.5C 212.338,187.473 212.505,185.473 213,183.5C 213.667,184.833 214.333,184.833 215,183.5C 216.253,187.044 218.087,187.377 220.5,184.5C 227.542,184.654 234.709,184.987 242,185.5C 243.507,181.764 244.34,181.764 244.5,185.5 Z"/></g>
<g><path style="opacity:0.741" fill="#d8da57" d="M 261.5,179.5 C 264.237,179.401 266.904,179.735 269.5,180.5C 270.906,180.973 271.573,181.973 271.5,183.5C 271.81,186.713 271.477,189.713 270.5,192.5C 271.993,182.996 267.993,179.329 258.5,181.5C 258.973,180.094 259.973,179.427 261.5,179.5 Z"/></g>
<g><path style="opacity:1" fill="#f7e024" d="M 258.5,181.5 C 258.738,184.408 257.738,186.742 255.5,188.5C 258.897,189.353 262.064,190.686 265,192.5C 265.333,192.167 265.667,191.833 266,191.5C 267.543,194.419 269.043,194.752 270.5,192.5C 270.371,194.216 270.038,195.883 269.5,197.5C 268.833,197.5 268.167,197.5 267.5,197.5C 263.97,195.857 260.304,194.357 256.5,193C 255.934,192.005 255.267,191.172 254.5,190.5C 254.5,189.167 254.5,187.833 254.5,186.5C 255.906,186.027 256.573,185.027 256.5,183.5C 256.833,182.5 257.5,181.833 258.5,181.5 Z"/></g>
<g><path style="opacity:0.812" fill="#b5a942" d="M 244.5,187.5 C 244.5,188.167 244.5,188.833 244.5,189.5C 244.293,192.241 243.293,194.574 241.5,196.5C 240.925,192.845 241.925,189.845 244.5,187.5 Z"/></g>
<g><path style="opacity:0.416" fill="#756d24" d="M 212.5,189.5 C 214.163,191.438 214.829,193.772 214.5,196.5C 213.076,194.485 212.41,192.152 212.5,189.5 Z"/></g>
<g><path style="opacity:1" fill="#f78612" d="M 199.5,184.5 C 200.167,184.833 200.833,185.167 201.5,185.5C 202.167,188.5 202.833,191.5 203.5,194.5C 198.835,195.5 194.168,196.5 189.5,197.5C 189.167,196.5 188.5,195.833 187.5,195.5C 187.5,194.833 187.5,194.167 187.5,193.5C 187.5,192.833 187.5,192.167 187.5,191.5C 188.594,192.582 189.927,193.248 191.5,193.5C 194.89,192.271 197.89,190.437 200.5,188C 200.011,186.862 199.678,185.695 199.5,184.5 Z"/></g>
<g><path style="opacity:0.004" fill="#000000" d="M 210.5,194.5 C 211.833,195.167 211.833,195.167 210.5,194.5 Z"/></g>
<g><path style="opacity:1" fill="#fac909" d="M 254.5,190.5 C 255.267,191.172 255.934,192.005 256.5,193C 260.304,194.357 263.97,195.857 267.5,197.5C 267.608,199.514 266.942,201.18 265.5,202.5C 264.636,201.312 263.636,200.145 262.5,199C 256.538,199.206 253.871,196.373 254.5,190.5 Z"/></g>
<g><path style="opacity:0.71" fill="#bc843a" d="M 201.5,185.5 C 204.724,189.497 206.39,194.164 206.5,199.5C 205.728,198.306 204.728,197.306 203.5,196.5C 203.5,195.833 203.5,195.167 203.5,194.5C 202.833,191.5 202.167,188.5 201.5,185.5 Z"/></g>
<g><path style="opacity:1" fill="#faf80f" d="M 238.5,200.5 C 235.192,204.475 233.525,209.141 233.5,214.5C 232.29,214.932 231.29,215.599 230.5,216.5C 229.609,217.261 228.942,218.261 228.5,219.5C 227.635,220.583 226.635,220.749 225.5,220C 224.263,217.031 222.93,214.197 221.5,211.5C 221.158,210.662 220.492,210.328 219.5,210.5C 219.542,206.991 218.876,203.658 217.5,200.5C 216.68,196.855 218.013,194.522 221.5,193.5C 223.098,194.485 224.765,194.651 226.5,194C 227.617,192.108 229.284,191.275 231.5,191.5C 231.843,195.438 233.843,196.438 237.5,194.5C 238.466,196.396 238.799,198.396 238.5,200.5 Z"/></g>
<g><path style="opacity:1" fill="#f6b41d" d="M 254.5,190.5 C 253.871,196.373 256.538,199.206 262.5,199C 263.636,200.145 264.636,201.312 265.5,202.5C 265.158,203.338 264.492,203.672 263.5,203.5C 262.596,202.791 262.263,201.791 262.5,200.5C 259.167,200.5 255.833,200.5 252.5,200.5C 252.167,200.5 251.833,200.5 251.5,200.5C 251.32,196.714 252.32,193.381 254.5,190.5 Z"/></g>
<g><path style="opacity:0.004" fill="#000000" d="M 392.5,198.5 C 393.833,199.167 393.833,199.167 392.5,198.5 Z"/></g>
<g><path style="opacity:1" fill="#f9aa10" d="M 203.5,194.5 C 203.5,195.167 203.5,195.833 203.5,196.5C 203.489,198.017 202.823,199.184 201.5,200C 198.144,200.872 195.144,202.372 192.5,204.5C 191.227,202.287 190.227,199.954 189.5,197.5C 194.168,196.5 198.835,195.5 203.5,194.5 Z"/></g>
<g><path style="opacity:0.69" fill="#aa7e38" d="M 187.5,195.5 C 188.5,195.833 189.167,196.5 189.5,197.5C 190.227,199.954 191.227,202.287 192.5,204.5C 192.557,205.609 192.89,206.609 193.5,207.5C 194.11,208.391 194.443,209.391 194.5,210.5C 191.161,207.165 188.828,203.165 187.5,198.5C 187.5,197.5 187.5,196.5 187.5,195.5 Z"/></g>
<g><path style="opacity:1" fill="#f69c0d" d="M 252.5,200.5 C 255.833,200.5 259.167,200.5 262.5,200.5C 262.263,201.791 262.596,202.791 263.5,203.5C 263.5,204.833 263.5,206.167 263.5,207.5C 262.833,207.5 262.167,207.5 261.5,207.5C 259.046,207.679 256.879,207.013 255,205.5C 254.098,205.743 253.265,206.077 252.5,206.5C 252.5,204.5 252.5,202.5 252.5,200.5 Z"/></g>
<g><path style="opacity:1" fill="#f4d02d" d="M 203.5,196.5 C 204.728,197.306 205.728,198.306 206.5,199.5C 206.821,205.026 206.488,210.36 205.5,215.5C 205.892,212.278 205.392,209.278 204,206.5C 202.168,207.858 200.335,208.192 198.5,207.5C 197.571,208.689 197.238,210.022 197.5,211.5C 196.607,209.703 195.274,208.37 193.5,207.5C 192.89,206.609 192.557,205.609 192.5,204.5C 195.144,202.372 198.144,200.872 201.5,200C 202.823,199.184 203.489,198.017 203.5,196.5 Z"/></g>
<g><path style="opacity:0.827" fill="#b6b544" d="M 214.5,196.5 C 215.857,197.59 216.857,198.924 217.5,200.5C 218.876,203.658 219.542,206.991 219.5,210.5C 217.235,206.146 215.569,201.479 214.5,196.5 Z"/></g>
<g><path style="opacity:0.867" fill="#c1c043" d="M 241.5,197.5 C 239.07,203.357 236.403,209.023 233.5,214.5C 233.525,209.141 235.192,204.475 238.5,200.5C 239.272,199.306 240.272,198.306 241.5,197.5 Z"/></g>
<g><path style="opacity:0.875" fill="#b98736" d="M 267.5,197.5 C 268.167,197.5 268.833,197.5 269.5,197.5C 269.5,197.833 269.5,198.167 269.5,198.5C 268.59,201.992 266.924,204.992 264.5,207.5C 264.167,207.5 263.833,207.5 263.5,207.5C 263.5,206.167 263.5,204.833 263.5,203.5C 264.492,203.672 265.158,203.338 265.5,202.5C 266.942,201.18 267.608,199.514 267.5,197.5 Z"/></g>
<g><path style="opacity:0.004" fill="#000000" d="M 287.5,204.5 C 288.833,205.167 288.833,205.167 287.5,204.5 Z"/></g>
<g><path style="opacity:0.004" fill="#000000" d="M 156.5,206.5 C 157.833,207.167 157.833,207.167 156.5,206.5 Z"/></g>
<g><path style="opacity:0.075" fill="#534b17" d="M 206.5,199.5 C 207.617,207.01 207.617,214.676 206.5,222.5C 204.62,222.771 203.287,222.104 202.5,220.5C 203.496,220.414 204.329,220.748 205,221.5C 205.495,219.527 205.662,217.527 205.5,215.5C 206.488,210.36 206.821,205.026 206.5,199.5 Z"/></g>
<g><path style="opacity:1" fill="#f6f134" d="M 205.5,215.5 C 205.662,217.527 205.495,219.527 205,221.5C 204.329,220.748 203.496,220.414 202.5,220.5C 202.443,219.391 202.11,218.391 201.5,217.5C 200.192,215.503 198.859,213.503 197.5,211.5C 197.238,210.022 197.571,208.689 198.5,207.5C 200.335,208.192 202.168,207.858 204,206.5C 205.392,209.278 205.892,212.278 205.5,215.5 Z"/></g>
<g><path style="opacity:1" fill="#f4720e" d="M 261.5,207.5 C 258.778,209.957 256.778,212.957 255.5,216.5C 254.675,217.386 253.675,217.719 252.5,217.5C 252.5,213.833 252.5,210.167 252.5,206.5C 253.265,206.077 254.098,205.743 255,205.5C 256.879,207.013 259.046,207.679 261.5,207.5 Z"/></g>
<g><path style="opacity:0.918" fill="#cbc34d" d="M 193.5,207.5 C 195.274,208.37 196.607,209.703 197.5,211.5C 198.859,213.503 200.192,215.503 201.5,217.5C 200.5,216.833 199.5,216.167 198.5,215.5C 196.413,214.415 195.08,212.749 194.5,210.5C 194.443,209.391 194.11,208.391 193.5,207.5 Z"/></g>
<g><path style="opacity:0.651" fill="#a7a343" d="M 219.5,210.5 C 220.492,210.328 221.158,210.662 221.5,211.5C 221.833,214.167 222.167,216.833 222.5,219.5C 220.928,216.785 219.928,213.785 219.5,210.5 Z"/></g>
<g><path style="opacity:0.535" fill="#af743c" d="M 254.5,186.5 C 254.5,187.833 254.5,189.167 254.5,190.5C 252.32,193.381 251.32,196.714 251.5,200.5C 251.5,206.5 251.5,212.5 251.5,218.5C 252.833,218.5 254.167,218.5 255.5,218.5C 254.267,221.573 252.767,221.906 251,219.5C 250.501,213.509 250.334,207.509 250.5,201.5C 250.237,195.974 251.57,190.974 254.5,186.5 Z"/></g>
<g><path style="opacity:0.89" fill="#cf7232" d="M 251.5,200.5 C 251.833,200.5 252.167,200.5 252.5,200.5C 252.5,202.5 252.5,204.5 252.5,206.5C 252.5,210.167 252.5,213.833 252.5,217.5C 253.675,217.719 254.675,217.386 255.5,216.5C 256.778,212.957 258.778,209.957 261.5,207.5C 262.167,207.5 262.833,207.5 263.5,207.5C 263.833,207.5 264.167,207.5 264.5,207.5C 264.262,209.404 263.262,210.738 261.5,211.5C 259.453,213.55 257.786,215.883 256.5,218.5C 256.167,218.5 255.833,218.5 255.5,218.5C 254.167,218.5 252.833,218.5 251.5,218.5C 251.5,212.5 251.5,206.5 251.5,200.5 Z"/></g>
<g><path style="opacity:0.239" fill="#411f17" d="M 166.5,229.5 C 166.557,228.391 166.89,227.391 167.5,226.5C 171.034,223.4 173.534,219.733 175,215.5C 172.6,217.415 170.1,219.081 167.5,220.5C 170.318,217.495 173.484,214.828 177,212.5C 177.692,213.025 178.192,213.692 178.5,214.5C 175.206,220.121 171.206,225.121 166.5,229.5 Z"/></g>
<g><path style="opacity:0.016" fill="#555714" d="M 198.5,215.5 C 199.5,216.167 200.5,216.833 201.5,217.5C 202.11,218.391 202.443,219.391 202.5,220.5C 200.413,219.415 199.08,217.749 198.5,215.5 Z"/></g>
<g><path style="opacity:0.718" fill="#868237" d="M 233.5,214.5 C 233.008,216.819 232.008,218.819 230.5,220.5C 230.5,219.167 230.5,217.833 230.5,216.5C 231.29,215.599 232.29,214.932 233.5,214.5 Z"/></g>
<g><path style="opacity:0.061" fill="#3a1309" d="M 250.5,201.5 C 250.334,207.509 250.501,213.509 251,219.5C 252.767,221.906 254.267,221.573 255.5,218.5C 255.833,218.5 256.167,218.5 256.5,218.5C 255.289,222.675 253.122,223.342 250,220.5C 249.18,213.986 249.347,207.653 250.5,201.5 Z"/></g>
<g><path style="opacity:0.047" fill="#5c2610" d="M 261.5,211.5 C 260.99,214.674 259.323,217.008 256.5,218.5C 257.786,215.883 259.453,213.55 261.5,211.5 Z"/></g>
<g><path style="opacity:0.051" fill="#341411" d="M 281.5,213.5 C 280.475,213.897 280.308,214.563 281,215.5C 284.166,217.853 286.333,220.853 287.5,224.5C 283.926,221.537 280.926,218.037 278.5,214C 279.503,212.454 280.503,212.287 281.5,213.5 Z"/></g>
<g><path style="opacity:0.925" fill="#e8e861" d="M 221.5,211.5 C 222.93,214.197 224.263,217.031 225.5,220C 226.635,220.749 227.635,220.583 228.5,219.5C 228.942,218.261 229.609,217.261 230.5,216.5C 230.5,217.833 230.5,219.167 230.5,220.5C 228.75,221.659 227.75,223.326 227.5,225.5C 225.487,223.832 223.82,221.832 222.5,219.5C 222.167,216.833 221.833,214.167 221.5,211.5 Z"/></g>
<g><path style="opacity:0.176" fill="#471a13" d="M 281.5,213.5 C 284.792,215.458 287.792,217.791 290.5,220.5C 286.637,219.306 283.637,216.973 281.5,213.5 Z"/></g>
<g><path style="opacity:0.937" fill="#b1643a" d="M 167.5,226.5 C 167.5,225.5 167.5,224.5 167.5,223.5C 164.223,225.477 160.89,227.477 157.5,229.5C 158.167,228.5 158.833,227.5 159.5,226.5C 161.86,224.147 164.527,222.147 167.5,220.5C 170.1,219.081 172.6,217.415 175,215.5C 173.534,219.733 171.034,223.4 167.5,226.5 Z"/></g>
<g><path style="opacity:0.141" fill="#534913" d="M 230.5,220.5 C 230.25,222.674 229.25,224.341 227.5,225.5C 227.75,223.326 228.75,221.659 230.5,220.5 Z"/></g>
<g><path style="opacity:0.004" fill="#000000" d="M 435.5,223.5 C 436.833,224.167 436.833,224.167 435.5,223.5 Z"/></g>
<g><path style="opacity:0.157" fill="#5d5e2b" d="M 222.5,219.5 C 223.82,221.832 225.487,223.832 227.5,225.5C 226.614,226.776 225.614,226.776 224.5,225.5C 223.253,223.677 222.586,221.677 222.5,219.5 Z"/></g>
<g><path style="opacity:1" fill="#af5a30" d="M 281.5,213.5 C 283.637,216.973 286.637,219.306 290.5,220.5C 293.81,222.482 296.81,224.815 299.5,227.5C 297.738,227.643 296.071,227.309 294.5,226.5C 293.417,227.365 293.251,228.365 294,229.5C 296.684,233.955 300.184,237.621 304.5,240.5C 306.391,244.153 308.391,247.82 310.5,251.5C 310.5,252.5 310.5,253.5 310.5,254.5C 307.687,251.554 305.354,248.221 303.5,244.5C 302.99,241.326 301.323,238.992 298.5,237.5C 294.487,233.485 290.821,229.152 287.5,224.5C 286.333,220.853 284.166,217.853 281,215.5C 280.308,214.563 280.475,213.897 281.5,213.5 Z"/></g>
<g><path style="opacity:0.004" fill="#000000" d="M 314.5,230.5 C 315.833,231.167 315.833,231.167 314.5,230.5 Z"/></g>
<g><path style="opacity:0.004" fill="#000000" d="M 87.5,231.5 C 88.8333,232.167 88.8333,232.167 87.5,231.5 Z"/></g>
<g><path style="opacity:0.224" fill="#7c341c" d="M 159.5,226.5 C 158.833,227.5 158.167,228.5 157.5,229.5C 156.5,229.833 155.833,230.5 155.5,231.5C 151.664,233.584 147.997,235.917 144.5,238.5C 148.917,233.747 153.917,229.747 159.5,226.5 Z"/></g>
<g><path style="opacity:0.012" fill="#622212" d="M 166.5,229.5 C 164.183,233.146 161.516,236.48 158.5,239.5C 158.238,238.022 158.571,236.689 159.5,235.5C 161.86,233.338 164.193,231.338 166.5,229.5 Z"/></g>
<g><path style="opacity:1" fill="#e6691e" d="M 167.5,226.5 C 166.89,227.391 166.557,228.391 166.5,229.5C 164.193,231.338 161.86,233.338 159.5,235.5C 158.571,236.689 158.238,238.022 158.5,239.5C 157.167,239.5 155.833,239.5 154.5,239.5C 154.719,238.325 154.386,237.325 153.5,236.5C 151.466,237.559 149.466,238.559 147.5,239.5C 150.167,236.833 152.833,234.167 155.5,231.5C 155.833,230.5 156.5,229.833 157.5,229.5C 160.89,227.477 164.223,225.477 167.5,223.5C 167.5,224.5 167.5,225.5 167.5,226.5 Z"/></g>
<g><path style="opacity:0.6" fill="#ae5a2f" d="M 299.5,227.5 C 305.81,231.815 311.81,236.482 317.5,241.5C 315.685,240.37 313.685,239.704 311.5,239.5C 307.863,236.675 304.197,233.842 300.5,231C 299.663,229.989 299.33,228.822 299.5,227.5 Z"/></g>
<g><path style="opacity:0.035" fill="#521b0c" d="M 298.5,237.5 C 301.323,238.992 302.99,241.326 303.5,244.5C 301.1,242.704 299.433,240.37 298.5,237.5 Z"/></g>
<g><path style="opacity:1" fill="#f16712" d="M 299.5,227.5 C 299.33,228.822 299.663,229.989 300.5,231C 304.197,233.842 307.863,236.675 311.5,239.5C 312.234,240.708 312.567,242.041 312.5,243.5C 309.385,243.606 306.719,242.606 304.5,240.5C 300.184,237.621 296.684,233.955 294,229.5C 293.251,228.365 293.417,227.365 294.5,226.5C 296.071,227.309 297.738,227.643 299.5,227.5 Z"/></g>
<g><path style="opacity:0.004" fill="#000000" d="M 183.5,242.5 C 184.833,243.167 184.833,243.167 183.5,242.5 Z"/></g>
<g><path style="opacity:0.004" fill="#000000" d="M 80.5,244.5 C 81.8333,245.167 81.8333,245.167 80.5,244.5 Z"/></g>
<g><path style="opacity:0.004" fill="#000000" d="M 272.5,244.5 C 273.833,245.167 273.833,245.167 272.5,244.5 Z"/></g>
<g><path style="opacity:0.004" fill="#000000" d="M 99.5,245.5 C 100.833,246.167 100.833,246.167 99.5,245.5 Z"/></g>
<g><path style="opacity:0.875" fill="#c66d36" d="M 155.5,231.5 C 152.833,234.167 150.167,236.833 147.5,239.5C 143.98,240.353 141.313,242.353 139.5,245.5C 134.953,247.706 130.953,250.706 127.5,254.5C 127.557,253.391 127.89,252.391 128.5,251.5C 128.414,250.504 128.748,249.671 129.5,249C 134.398,245.255 139.398,241.755 144.5,238.5C 147.997,235.917 151.664,233.584 155.5,231.5 Z"/></g>
<g><path style="opacity:0.004" fill="#000000" d="M 274.5,245.5 C 275.833,246.167 275.833,246.167 274.5,245.5 Z"/></g>
<g><path style="opacity:1" fill="#f87009" d="M 154.5,239.5 C 153.974,241.23 152.974,242.564 151.5,243.5C 148.551,245.445 145.885,247.778 143.5,250.5C 140.508,250.191 139.175,248.524 139.5,245.5C 141.313,242.353 143.98,240.353 147.5,239.5C 149.466,238.559 151.466,237.559 153.5,236.5C 154.386,237.325 154.719,238.325 154.5,239.5 Z"/></g>
<g><path style="opacity:0.004" fill="#000000" d="M 173.5,246.5 C 174.833,247.167 174.833,247.167 173.5,246.5 Z"/></g>
<g><path style="opacity:0.773" fill="#9f5627" d="M 154.5,239.5 C 155.833,239.5 157.167,239.5 158.5,239.5C 152.258,246.659 147.592,254.659 144.5,263.5C 144.5,262.833 144.5,262.167 144.5,261.5C 145.092,258.873 145.425,256.206 145.5,253.5C 147.677,250.344 149.677,247.01 151.5,243.5C 152.974,242.564 153.974,241.23 154.5,239.5 Z"/></g>
<g><path style="opacity:0.886" fill="#b66c34" d="M 318.5,241.5 C 323.486,244.821 327.82,248.821 331.5,253.5C 329.801,253.473 328.467,252.806 327.5,251.5C 323.453,249.119 320.453,245.786 318.5,241.5 Z"/></g>
<g><path style="opacity:1" fill="#f7800c" d="M 311.5,239.5 C 313.685,239.704 315.685,240.37 317.5,241.5C 317.833,241.5 318.167,241.5 318.5,241.5C 320.453,245.786 323.453,249.119 327.5,251.5C 327.5,253.5 327.5,255.5 327.5,257.5C 324.167,256.833 320.833,256.167 317.5,255.5C 317.5,254.5 317.5,253.5 317.5,252.5C 315.435,252.483 313.435,252.15 311.5,251.5C 311.167,251.5 310.833,251.5 310.5,251.5C 308.391,247.82 306.391,244.153 304.5,240.5C 306.719,242.606 309.385,243.606 312.5,243.5C 312.567,242.041 312.234,240.708 311.5,239.5 Z"/></g>
<g><path style="opacity:0.004" fill="#000000" d="M 281.5,252.5 C 282.833,253.167 282.833,253.167 281.5,252.5 Z"/></g>
<g><path style="opacity:0.624" fill="#9e6933" d="M 128.5,251.5 C 127.89,252.391 127.557,253.391 127.5,254.5C 123.761,257.942 121.761,262.275 121.5,267.5C 121.5,267.833 121.5,268.167 121.5,268.5C 119.631,261.222 121.965,255.556 128.5,251.5 Z"/></g>
<g><path style="opacity:1" fill="#f68709" d="M 151.5,243.5 C 149.677,247.01 147.677,250.344 145.5,253.5C 143.836,254.949 143.002,256.949 143,259.5C 142.547,257.245 141.214,255.911 139,255.5C 135.113,256.725 131.28,257.059 127.5,256.5C 127.5,255.833 127.5,255.167 127.5,254.5C 130.953,250.706 134.953,247.706 139.5,245.5C 139.175,248.524 140.508,250.191 143.5,250.5C 145.885,247.778 148.551,245.445 151.5,243.5 Z"/></g>
<g><path style="opacity:0.004" fill="#000000" d="M 84.5,257.5 C 85.8333,258.167 85.8333,258.167 84.5,257.5 Z"/></g>
<g><path style="opacity:1" fill="#f79810" d="M 145.5,253.5 C 145.425,256.206 145.092,258.873 144.5,261.5C 143.662,261.842 143.328,262.508 143.5,263.5C 141.549,263.227 140.049,263.893 139,265.5C 135.841,263.403 132.841,263.403 130,265.5C 129.667,264.833 129.333,264.167 129,263.5C 126.833,265 125.333,264.5 124.5,262C 125.14,259.88 126.14,258.046 127.5,256.5C 131.28,257.059 135.113,256.725 139,255.5C 141.214,255.911 142.547,257.245 143,259.5C 143.002,256.949 143.836,254.949 145.5,253.5 Z"/></g>
<g><path style="opacity:0.863" fill="#cd933c" d="M 310.5,251.5 C 310.833,251.5 311.167,251.5 311.5,251.5C 314.055,255.035 315.388,259.035 315.5,263.5C 315.5,265.833 315.5,268.167 315.5,270.5C 314.024,273.583 312.357,276.583 310.5,279.5C 309.778,280.551 308.778,281.218 307.5,281.5C 309.169,277.496 310.836,273.496 312.5,269.5C 313.643,266.024 313.81,262.358 313,258.5C 312.8,256.68 311.966,255.347 310.5,254.5C 310.5,253.5 310.5,252.5 310.5,251.5 Z"/></g>
<g><path style="opacity:1" fill="#f89b08" d="M 311.5,251.5 C 313.435,252.15 315.435,252.483 317.5,252.5C 317.5,253.5 317.5,254.5 317.5,255.5C 320.833,256.167 324.167,256.833 327.5,257.5C 327.5,255.5 327.5,253.5 327.5,251.5C 328.467,252.806 329.801,253.473 331.5,253.5C 332.117,256.355 333.117,259.022 334.5,261.5C 334.5,262.833 334.5,264.167 334.5,265.5C 332.408,265.561 330.908,266.561 330,268.5C 329,267.167 328,265.833 327,264.5C 325.005,267.841 322.672,268.175 320,265.5C 318.739,265.759 317.739,266.426 317,267.5C 316.79,265.942 316.29,264.609 315.5,263.5C 315.388,259.035 314.055,255.035 311.5,251.5 Z"/></g>
<g><path style="opacity:0.063" fill="#3c1203" d="M 250.5,262.5 C 255.911,261.143 261.245,261.476 266.5,263.5C 261.187,262.902 255.854,262.569 250.5,262.5 Z"/></g>
<g><path style="opacity:0.871" fill="#ac613b" d="M 250.5,262.5 C 255.854,262.569 261.187,262.902 266.5,263.5C 267.496,263.414 268.329,263.748 269,264.5C 269.667,269.833 269.667,275.167 269,280.5C 267.708,281.791 266.542,281.791 265.5,280.5C 265.472,277.084 264.472,274.084 262.5,271.5C 261.407,269.651 260.074,267.984 258.5,266.5C 252.454,263.97 248.12,265.637 245.5,271.5C 244.704,266.639 243.038,266.639 240.5,271.5C 239.391,271.557 238.391,271.89 237.5,272.5C 238.247,269.638 239.914,267.638 242.5,266.5C 245.298,265.35 247.965,264.017 250.5,262.5 Z"/></g>
<g><path style="opacity:0.278" fill="#582311" d="M 250.5,262.5 C 247.965,264.017 245.298,265.35 242.5,266.5C 244.315,263.593 246.981,262.259 250.5,262.5 Z"/></g>
<g><path style="opacity:0.353" fill="#683621" d="M 231.5,281.5 C 231.167,281.5 230.833,281.5 230.5,281.5C 230.228,277.098 230.561,272.765 231.5,268.5C 231.291,267.914 230.957,267.414 230.5,267C 228.19,266.503 225.857,266.337 223.5,266.5C 221.473,266.338 219.473,266.505 217.5,267C 220.447,267.112 221.78,268.612 221.5,271.5C 220.626,269.31 218.959,268.31 216.5,268.5C 216.33,267.178 216.663,266.011 217.5,265C 221.976,264.834 226.31,264.667 230.5,264.5C 237.551,265.329 238.051,267.329 232,270.5C 231.501,274.152 231.335,277.818 231.5,281.5 Z"/></g>
<g><path style="opacity:0.039" fill="#3f220a" d="M 310.5,254.5 C 311.966,255.347 312.8,256.68 313,258.5C 313.81,262.358 313.643,266.024 312.5,269.5C 312.818,264.341 312.152,259.341 310.5,254.5 Z"/></g>
<g><path style="opacity:0.165" fill="#5c220f" d="M 258.5,266.5 C 247.799,265.953 244.466,270.62 248.5,280.5C 247.143,279.41 246.143,278.076 245.5,276.5C 245.5,274.833 245.5,273.167 245.5,271.5C 248.12,265.637 252.454,263.97 258.5,266.5 Z"/></g>
<g><path style="opacity:1" fill="#f9ae0f" d="M 334.5,261.5 C 335.685,266.23 334.685,270.563 331.5,274.5C 331.649,273.448 331.483,272.448 331,271.5C 329.431,272.122 327.764,272.456 326,272.5C 322.502,270.671 319.002,270.004 315.5,270.5C 315.5,268.167 315.5,265.833 315.5,263.5C 316.29,264.609 316.79,265.942 317,267.5C 317.739,266.426 318.739,265.759 320,265.5C 322.672,268.175 325.005,267.841 327,264.5C 328,265.833 329,267.167 330,268.5C 330.908,266.561 332.408,265.561 334.5,265.5C 334.5,264.167 334.5,262.833 334.5,261.5 Z"/></g>
<g><path style="opacity:1" fill="#f6ab15" d="M 127.5,254.5 C 127.5,255.167 127.5,255.833 127.5,256.5C 126.14,258.046 125.14,259.88 124.5,262C 125.333,264.5 126.833,265 129,263.5C 129.333,264.167 129.667,264.833 130,265.5C 132.841,263.403 135.841,263.403 139,265.5C 140.049,263.893 141.549,263.227 143.5,263.5C 143.335,266.518 143.502,269.518 144,272.5C 144.383,273.056 144.883,273.389 145.5,273.5C 145.5,273.833 145.5,274.167 145.5,274.5C 145.5,275.167 145.167,275.5 144.5,275.5C 144.167,275.5 143.833,275.5 143.5,275.5C 141.708,274.691 139.708,274.191 137.5,274C 135.366,270.226 132.699,269.726 129.5,272.5C 127.272,270.963 125.272,269.296 123.5,267.5C 122.833,267.5 122.167,267.5 121.5,267.5C 121.761,262.275 123.761,257.942 127.5,254.5 Z"/></g>
<g><path style="opacity:0.757" fill="#a98a39" d="M 121.5,267.5 C 122.167,267.5 122.833,267.5 123.5,267.5C 125.006,272.352 127.006,277.019 129.5,281.5C 125.565,277.967 122.899,273.634 121.5,268.5C 121.5,268.167 121.5,267.833 121.5,267.5 Z"/></g>
<g><path style="opacity:0.812" fill="#c1903e" d="M 144.5,261.5 C 144.5,262.167 144.5,262.833 144.5,263.5C 144.5,264.5 144.5,265.5 144.5,266.5C 144.448,268.903 144.781,271.236 145.5,273.5C 144.883,273.389 144.383,273.056 144,272.5C 143.502,269.518 143.335,266.518 143.5,263.5C 143.328,262.508 143.662,261.842 144.5,261.5 Z"/></g>
<g><path style="opacity:0.227" fill="#613a13" d="M 144.5,266.5 C 145.669,269.341 146.669,272.341 147.5,275.5C 146.833,275.167 146.167,274.833 145.5,274.5C 145.5,274.167 145.5,273.833 145.5,273.5C 144.781,271.236 144.448,268.903 144.5,266.5 Z"/></g>
<g><path style="opacity:1" fill="#e47529" d="M 262.5,264.5 C 263.93,264.421 265.264,264.754 266.5,265.5C 267.833,268.5 267.833,271.5 266.5,274.5C 264.599,271.369 263.265,268.035 262.5,264.5 Z"/></g>
<g><path style="opacity:0.294" fill="#724124" d="M 212.5,292.5 C 210.167,292.5 207.833,292.5 205.5,292.5C 205.334,285.159 205.5,277.826 206,270.5C 206.5,268.667 207.667,267.5 209.5,267C 205.72,265.515 202.054,265.348 198.5,266.5C 197.566,267.568 197.232,268.901 197.5,270.5C 197.802,278.918 197.469,287.252 196.5,295.5C 195.5,295.5 194.5,295.5 193.5,295.5C 194.172,294.733 195.005,294.066 196,293.5C 196.667,286.167 196.667,278.833 196,271.5C 194.306,269.76 193.139,267.76 192.5,265.5C 198.833,264.167 205.167,264.167 211.5,265.5C 211.5,266.5 211.5,267.5 211.5,268.5C 209.089,268.137 207.589,269.137 207,271.5C 206.5,278.158 206.334,284.825 206.5,291.5C 208.735,291.205 210.735,291.539 212.5,292.5 Z"/></g>
<g><path style="opacity:0.525" fill="#bc8e3e" d="M 331.5,253.5 C 337.103,258.05 338.603,263.717 336,270.5C 334.556,274.411 332.389,277.744 329.5,280.5C 329.5,279.5 329.5,278.5 329.5,277.5C 329.932,276.29 330.599,275.29 331.5,274.5C 334.685,270.563 335.685,266.23 334.5,261.5C 333.117,259.022 332.117,256.355 331.5,253.5 Z"/></g>
<g><path style="opacity:1" fill="#f47611" d="M 223.5,267.5 C 225.5,267.5 227.5,267.5 229.5,267.5C 229.5,270.5 229.5,273.5 229.5,276.5C 227.621,277.341 225.621,277.675 223.5,277.5C 223.795,275.265 223.461,273.265 222.5,271.5C 222.232,269.901 222.566,268.568 223.5,267.5 Z"/></g>
<g><path style="opacity:0.129" fill="#45150b" d="M 262.5,271.5 C 264.472,274.084 265.472,277.084 265.5,280.5C 263.928,277.785 262.928,274.785 262.5,271.5 Z"/></g>
<g><path style="opacity:1" fill="#f8c011" d="M 315.5,270.5 C 319.002,270.004 322.502,270.671 326,272.5C 327.764,272.456 329.431,272.122 331,271.5C 331.483,272.448 331.649,273.448 331.5,274.5C 330.599,275.29 329.932,276.29 329.5,277.5C 327.824,278.183 327.157,279.517 327.5,281.5C 326.5,281.5 325.5,281.5 324.5,281.5C 321.52,280.693 318.353,280.693 315,281.5C 313.014,281.431 311.514,280.765 310.5,279.5C 312.357,276.583 314.024,273.583 315.5,270.5 Z"/></g>
<g><path style="opacity:0.004" fill="#000000" d="M 277.5,275.5 C 278.833,276.167 278.833,276.167 277.5,275.5 Z"/></g>
<g><path style="opacity:1" fill="#f7c00f" d="M 123.5,267.5 C 125.272,269.296 127.272,270.963 129.5,272.5C 132.699,269.726 135.366,270.226 137.5,274C 139.708,274.191 141.708,274.691 143.5,275.5C 143.5,276.5 143.5,277.5 143.5,278.5C 140.468,278.505 137.468,278.838 134.5,279.5C 132.97,279.64 131.97,280.307 131.5,281.5C 130.833,281.5 130.167,281.5 129.5,281.5C 127.006,277.019 125.006,272.352 123.5,267.5 Z"/></g>
<g><path style="opacity:0.736" fill="#d4873d" d="M 198.5,266.5 C 202.054,265.348 205.72,265.515 209.5,267C 207.667,267.5 206.5,268.667 206,270.5C 205.5,277.826 205.334,285.159 205.5,292.5C 204.532,290.393 204.198,288.059 204.5,285.5C 204.666,279.491 204.499,273.491 204,267.5C 202.301,266.594 200.467,266.261 198.5,266.5 Z"/></g>
<g><path style="opacity:0.004" fill="#000000" d="M 304.5,278.5 C 305.833,279.167 305.833,279.167 304.5,278.5 Z"/></g>
<g><path style="opacity:0.6" fill="#784124" d="M 237.5,272.5 C 237.324,277.88 237.658,283.213 238.5,288.5C 234.866,283.368 234.533,278.034 237.5,272.5 Z"/></g>
<g><path style="opacity:0.961" fill="#d28540" d="M 240.5,271.5 C 238.459,275.829 238.126,280.162 239.5,284.5C 239.5,286.5 239.5,288.5 239.5,290.5C 238.662,290.158 238.328,289.492 238.5,288.5C 237.658,283.213 237.324,277.88 237.5,272.5C 238.391,271.89 239.391,271.557 240.5,271.5 Z"/></g>
<g><path style="opacity:0.98" fill="#ab6f30" d="M 245.5,276.5 C 246.143,278.076 247.143,279.41 248.5,280.5C 251.138,283.474 253.805,286.474 256.5,289.5C 254.246,288.585 252.246,287.252 250.5,285.5C 249.061,283.64 247.395,281.973 245.5,280.5C 245.5,279.167 245.5,277.833 245.5,276.5 Z"/></g>
<g><path style="opacity:1" fill="#debc36" d="M 145.5,274.5 C 146.167,274.833 146.833,275.167 147.5,275.5C 148.674,276.514 149.34,277.847 149.5,279.5C 149.5,280.833 149.5,282.167 149.5,283.5C 148.504,283.586 147.671,283.252 147,282.5C 145.864,280.257 145.03,277.924 144.5,275.5C 145.167,275.5 145.5,275.167 145.5,274.5 Z"/></g>
<g><path style="opacity:1" fill="#f48016" d="M 245.5,271.5 C 245.5,273.167 245.5,274.833 245.5,276.5C 245.5,277.833 245.5,279.167 245.5,280.5C 243.712,283.066 241.879,283.066 240,280.5C 239.51,281.793 239.343,283.127 239.5,284.5C 238.126,280.162 238.459,275.829 240.5,271.5C 243.038,266.639 244.704,266.639 245.5,271.5 Z"/></g>
<g><path style="opacity:0.004" fill="#000000" d="M 346.5,280.5 C 347.833,281.167 347.833,281.167 346.5,280.5 Z"/></g>
<g><path style="opacity:0.898" fill="#a8963b" d="M 129.5,281.5 C 130.167,281.5 130.833,281.5 131.5,281.5C 134.095,283.014 135.429,285.348 135.5,288.5C 132.781,286.781 130.781,284.447 129.5,281.5 Z"/></g>
<g><path style="opacity:0.824" fill="#9b8433" d="M 149.5,279.5 C 151.588,281.336 152.921,283.669 153.5,286.5C 153.167,286.5 152.833,286.5 152.5,286.5C 151.833,286.167 151.167,285.833 150.5,285.5C 150.672,284.508 150.338,283.842 149.5,283.5C 149.5,282.167 149.5,280.833 149.5,279.5 Z"/></g>
<g><path style="opacity:1" fill="#f6d419" d="M 310.5,279.5 C 311.514,280.765 313.014,281.431 315,281.5C 318.353,280.693 321.52,280.693 324.5,281.5C 323.549,282.919 323.216,284.585 323.5,286.5C 321.708,286.366 320.042,286.699 318.5,287.5C 317.733,286.828 317.066,285.995 316.5,285C 314.236,284.764 312.069,284.264 310,283.5C 308.632,284.993 308.465,286.493 309.5,288C 307.773,287.474 306.106,287.641 304.5,288.5C 304.5,287.833 304.5,287.167 304.5,286.5C 307.084,285.952 308.084,284.285 307.5,281.5C 308.778,281.218 309.778,280.551 310.5,279.5 Z"/></g>
<g><path style="opacity:1" fill="#f6d319" d="M 143.5,275.5 C 143.833,275.5 144.167,275.5 144.5,275.5C 145.03,277.924 145.864,280.257 147,282.5C 147.671,283.252 148.504,283.586 149.5,283.5C 150.338,283.842 150.672,284.508 150.5,285.5C 149.524,286.815 148.524,288.148 147.5,289.5C 146.276,288.234 144.943,287.067 143.5,286C 139.912,285.389 138.746,286.889 140,290.5C 141.085,291.736 141.918,293.069 142.5,294.5C 141.833,294.5 141.167,294.5 140.5,294.5C 138.833,292.5 137.167,290.5 135.5,288.5C 135.429,285.348 134.095,283.014 131.5,281.5C 131.97,280.307 132.97,279.64 134.5,279.5C 137.468,278.838 140.468,278.505 143.5,278.5C 143.5,277.5 143.5,276.5 143.5,275.5 Z"/></g>
<g><path style="opacity:1" fill="#f28616" d="M 198.5,266.5 C 200.467,266.261 202.301,266.594 204,267.5C 204.499,273.491 204.666,279.491 204.5,285.5C 202.226,286.952 200.726,286.285 200,283.5C 199.505,285.473 199.338,287.473 199.5,289.5C 199.167,289.5 198.833,289.5 198.5,289.5C 198.823,282.978 198.49,276.645 197.5,270.5C 197.232,268.901 197.566,267.568 198.5,266.5 Z"/></g>
<g><path style="opacity:0.763" fill="#d8893e" d="M 223.5,267.5 C 223.5,267.167 223.5,266.833 223.5,266.5C 225.857,266.337 228.19,266.503 230.5,267C 230.957,267.414 231.291,267.914 231.5,268.5C 230.561,272.765 230.228,277.098 230.5,281.5C 230.5,284.5 230.5,287.5 230.5,290.5C 229.833,290.5 229.5,290.167 229.5,289.5C 229.5,285.167 229.5,280.833 229.5,276.5C 229.5,273.5 229.5,270.5 229.5,267.5C 227.5,267.5 225.5,267.5 223.5,267.5 Z"/></g>
<g><path style="opacity:1" fill="#f3931f" d="M 222.5,271.5 C 223.461,273.265 223.795,275.265 223.5,277.5C 225.621,277.675 227.621,277.341 229.5,276.5C 229.5,280.833 229.5,285.167 229.5,289.5C 228.788,290.739 227.788,291.239 226.5,291C 225.853,289.391 225.02,287.891 224,286.5C 223.501,290.821 223.334,295.154 223.5,299.5C 223.167,299.5 222.833,299.5 222.5,299.5C 222.5,290.167 222.5,280.833 222.5,271.5 Z"/></g>
<g><path style="opacity:0.804" fill="#9f893c" d="M 307.5,281.5 C 308.084,284.285 307.084,285.952 304.5,286.5C 304.75,284.326 305.75,282.659 307.5,281.5 Z"/></g>
<g><path style="opacity:0.365" fill="#9b6328" d="M 223.5,266.5 C 223.5,266.833 223.5,267.167 223.5,267.5C 222.566,268.568 222.232,269.901 222.5,271.5C 222.5,280.833 222.5,290.167 222.5,299.5C 222.5,301.167 222.5,302.833 222.5,304.5C 222.167,304.5 221.833,304.5 221.5,304.5C 221.633,301.075 220.967,300.742 219.5,303.5C 219.5,301.167 219.5,298.833 219.5,296.5C 220.117,296.611 220.617,296.944 221,297.5C 221.5,288.84 221.666,280.173 221.5,271.5C 221.78,268.612 220.447,267.112 217.5,267C 219.473,266.505 221.473,266.338 223.5,266.5 Z"/></g>
<g><path style="opacity:0.922" fill="#beaa3c" d="M 329.5,277.5 C 329.5,278.5 329.5,279.5 329.5,280.5C 326.208,285.46 322.208,289.793 317.5,293.5C 317.5,291.833 317.5,290.167 317.5,288.5C 318.167,288.5 318.5,288.167 318.5,287.5C 320.042,286.699 321.708,286.366 323.5,286.5C 323.216,284.585 323.549,282.919 324.5,281.5C 325.5,281.5 326.5,281.5 327.5,281.5C 327.157,279.517 327.824,278.183 329.5,277.5 Z"/></g>
<g><path style="opacity:0.004" fill="#000000" d="M 355.5,287.5 C 356.833,288.167 356.833,288.167 355.5,287.5 Z"/></g>
<g><path style="opacity:0.176" fill="#68561d" d="M 153.5,286.5 C 154.906,286.973 155.573,287.973 155.5,289.5C 154.094,289.027 153.427,288.027 153.5,286.5 Z"/></g>
<g><path style="opacity:0.216" fill="#6f661c" d="M 304.5,286.5 C 304.5,287.167 304.5,287.833 304.5,288.5C 303.833,288.833 303.167,289.167 302.5,289.5C 302.427,287.973 303.094,286.973 304.5,286.5 Z"/></g>
<g><path style="opacity:1" fill="#f7e419" d="M 318.5,287.5 C 318.5,288.167 318.167,288.5 317.5,288.5C 313.991,288.808 312.324,290.808 312.5,294.5C 311.127,294.343 309.793,294.51 308.5,295C 309.308,295.308 309.975,295.808 310.5,296.5C 309.311,297.429 307.978,297.762 306.5,297.5C 305.732,296.737 305.232,295.737 305,294.5C 304.333,295.833 303.667,295.833 303,294.5C 300.637,296.366 298.47,298.366 296.5,300.5C 296.5,299.833 296.5,299.167 296.5,298.5C 297.906,298.027 298.573,297.027 298.5,295.5C 299.906,295.027 300.573,294.027 300.5,292.5C 301.906,292.027 302.573,291.027 302.5,289.5C 303.167,289.167 303.833,288.833 304.5,288.5C 306.106,287.641 307.773,287.474 309.5,288C 308.465,286.493 308.632,284.993 310,283.5C 312.069,284.264 314.236,284.764 316.5,285C 317.066,285.995 317.733,286.828 318.5,287.5 Z"/></g>
<g><path style="opacity:0.514" fill="#8f6728" d="M 239.5,290.5 C 241.531,291.539 242.864,293.205 243.5,295.5C 241.457,294.421 240.124,292.754 239.5,290.5 Z"/></g>
<g><path style="opacity:1" fill="#f99b0d" d="M 245.5,280.5 C 247.395,281.973 249.061,283.64 250.5,285.5C 252.23,289.045 254.896,291.712 258.5,293.5C 258.134,294.695 257.301,295.361 256,295.5C 252.641,293.007 248.807,291.84 244.5,292C 242.733,289.456 241.066,286.956 239.5,284.5C 239.343,283.127 239.51,281.793 240,280.5C 241.879,283.066 243.712,283.066 245.5,280.5 Z"/></g>
<g><path style="opacity:0.157" fill="#6a661e" d="M 155.5,289.5 C 156.906,289.973 157.573,290.973 157.5,292.5C 156.094,292.027 155.427,291.027 155.5,289.5 Z"/></g>
<g><path style="opacity:0.224" fill="#676321" d="M 302.5,289.5 C 302.573,291.027 301.906,292.027 300.5,292.5C 300.427,290.973 301.094,289.973 302.5,289.5 Z"/></g>
<g><path style="opacity:1" fill="#f8ee18" d="M 150.5,285.5 C 151.167,285.833 151.833,286.167 152.5,286.5C 153.112,290.696 154.279,294.696 156,298.5C 157.177,300.176 158.677,301.509 160.5,302.5C 159.158,303.876 157.825,305.209 156.5,306.5C 155.583,305.873 154.583,305.539 153.5,305.5C 152.486,304.326 151.153,303.66 149.5,303.5C 149.512,300.858 148.179,299.525 145.5,299.5C 144.925,297.589 143.925,295.922 142.5,294.5C 141.918,293.069 141.085,291.736 140,290.5C 138.746,286.889 139.912,285.389 143.5,286C 144.943,287.067 146.276,288.234 147.5,289.5C 148.524,288.148 149.524,286.815 150.5,285.5 Z"/></g>
<g><path style="opacity:0.916" fill="#ba8d51" d="M 205.5,292.5 C 207.833,292.5 210.167,292.5 212.5,292.5C 215.857,292.216 218.191,293.549 219.5,296.5C 217.274,294.82 215.607,295.153 214.5,297.5C 213.609,296.89 212.609,296.557 211.5,296.5C 209.883,295.962 208.216,295.629 206.5,295.5C 206.167,295.5 205.833,295.5 205.5,295.5C 205.5,294.5 205.5,293.5 205.5,292.5 Z"/></g>
<g><path style="opacity:0.282" fill="#654a1b" d="M 260.5,292.5 C 262.587,293.585 263.92,295.251 264.5,297.5C 262.413,296.415 261.08,294.749 260.5,292.5 Z"/></g>
<g><path style="opacity:0.255" fill="#4b4819" d="M 140.5,294.5 C 141.167,294.5 141.833,294.5 142.5,294.5C 143.925,295.922 144.925,297.589 145.5,299.5C 143.548,298.215 141.882,296.549 140.5,294.5 Z"/></g>
<g><path style="opacity:0.235" fill="#6b5c12" d="M 157.5,292.5 C 158.906,292.973 159.573,293.973 159.5,295.5C 158.094,295.027 157.427,294.027 157.5,292.5 Z"/></g>
<g><path style="opacity:0.902" fill="#c79a41" d="M 250.5,285.5 C 252.246,287.252 254.246,288.585 256.5,289.5C 257.833,290.5 259.167,291.5 260.5,292.5C 261.08,294.749 262.413,296.415 264.5,297.5C 268.096,300.357 270.429,304.024 271.5,308.5C 271.167,308.5 270.833,308.5 270.5,308.5C 268.463,305.147 266.13,302.147 263.5,299.5C 261.804,297.475 260.137,295.475 258.5,293.5C 254.896,291.712 252.23,289.045 250.5,285.5 Z"/></g>
<g><path style="opacity:0.247" fill="#6c5d1c" d="M 300.5,292.5 C 300.573,294.027 299.906,295.027 298.5,295.5C 298.427,293.973 299.094,292.973 300.5,292.5 Z"/></g>
<g><path style="opacity:0.004" fill="#000000" d="M 85.5,295.5 C 86.8333,296.167 86.8333,296.167 85.5,295.5 Z"/></g>
<g><path style="opacity:1" fill="#f8a212" d="M 204.5,285.5 C 204.198,288.059 204.532,290.393 205.5,292.5C 205.5,293.5 205.5,294.5 205.5,295.5C 204.662,295.842 204.328,296.508 204.5,297.5C 202.833,297.5 201.167,297.5 199.5,297.5C 199.5,294.833 199.5,292.167 199.5,289.5C 199.338,287.473 199.505,285.473 200,283.5C 200.726,286.285 202.226,286.952 204.5,285.5 Z"/></g>
<g><path style="opacity:0.149" fill="#705513" d="M 230.5,281.5 C 230.833,281.5 231.167,281.5 231.5,281.5C 231.197,297.214 231.531,312.881 232.5,328.5C 231.833,328.167 231.167,327.833 230.5,327.5C 230.5,320.833 230.5,314.167 230.5,307.5C 230.5,301.833 230.5,296.167 230.5,290.5C 230.5,287.5 230.5,284.5 230.5,281.5 Z"/></g>
<g><path style="opacity:0.58" fill="#7b5c26" d="M 243.5,295.5 C 244.167,295.5 244.833,295.5 245.5,295.5C 247.167,297.5 248.833,299.5 250.5,301.5C 247.573,300.243 245.239,298.243 243.5,295.5 Z"/></g>
<g><path style="opacity:0.957" fill="#c99e3d" d="M 245.5,295.5 C 248.5,297.5 251.5,299.5 254.5,301.5C 255.114,303.283 256.28,304.616 258,305.5C 258.49,306.793 258.657,308.127 258.5,309.5C 257.5,308.833 256.5,308.167 255.5,307.5C 255.5,306.833 255.167,306.5 254.5,306.5C 254.5,305.833 254.167,305.5 253.5,305.5C 252.5,304.167 251.5,302.833 250.5,301.5C 248.833,299.5 247.167,297.5 245.5,295.5 Z"/></g>
<g><path style="opacity:0.208" fill="#605b1b" d="M 159.5,295.5 C 160.906,295.973 161.573,296.973 161.5,298.5C 160.094,298.027 159.427,297.027 159.5,295.5 Z"/></g>
<g><path style="opacity:1" fill="#f2ab1a" d="M 239.5,284.5 C 241.066,286.956 242.733,289.456 244.5,292C 248.807,291.84 252.641,293.007 256,295.5C 257.301,295.361 258.134,294.695 258.5,293.5C 260.137,295.475 261.804,297.475 263.5,299.5C 263.013,300.473 262.513,301.473 262,302.5C 259.656,300.715 257.156,299.382 254.5,298.5C 254.5,299.5 254.5,300.5 254.5,301.5C 251.5,299.5 248.5,297.5 245.5,295.5C 244.833,295.5 244.167,295.5 243.5,295.5C 242.864,293.205 241.531,291.539 239.5,290.5C 239.5,288.5 239.5,286.5 239.5,284.5 Z"/></g>
<g><path style="opacity:0.278" fill="#696316" d="M 298.5,295.5 C 298.573,297.027 297.906,298.027 296.5,298.5C 296.427,296.973 297.094,295.973 298.5,295.5 Z"/></g>
<g><path style="opacity:1" fill="#d9d537" d="M 317.5,288.5 C 317.5,290.167 317.5,291.833 317.5,293.5C 316.396,295.389 315.063,297.055 313.5,298.5C 312.167,298.5 311.5,299.167 311.5,300.5C 308.5,303.833 305.5,307.167 302.5,310.5C 299.833,311.167 298.167,312.833 297.5,315.5C 297.167,316.5 296.5,317.167 295.5,317.5C 293.938,317.733 292.605,318.4 291.5,319.5C 291.5,317.833 291.5,316.167 291.5,314.5C 293.143,314.52 294.476,313.853 295.5,312.5C 296.081,310.394 296.414,308.394 296.5,306.5C 299.861,308.484 301.528,307.484 301.5,303.5C 305.314,303.349 306.981,301.349 306.5,297.5C 307.978,297.762 309.311,297.429 310.5,296.5C 309.975,295.808 309.308,295.308 308.5,295C 309.793,294.51 311.127,294.343 312.5,294.5C 312.324,290.808 313.991,288.808 317.5,288.5 Z"/></g>
<g><path style="opacity:0.004" fill="#000000" d="M 443.5,297.5 C 444.833,298.167 444.833,298.167 443.5,297.5 Z"/></g>
<g><path style="opacity:0.296" fill="#5b3f18" d="M 211.5,296.5 C 212.609,296.557 213.609,296.89 214.5,297.5C 214.5,299.167 214.5,300.833 214.5,302.5C 213.167,303.167 212.167,304.167 211.5,305.5C 210.957,305.44 210.624,305.107 210.5,304.5C 213.878,302.083 214.212,299.416 211.5,296.5 Z"/></g>
<g><path style="opacity:1" fill="#f4b71a" d="M 198.5,289.5 C 198.833,289.5 199.167,289.5 199.5,289.5C 199.5,292.167 199.5,294.833 199.5,297.5C 201.167,297.5 202.833,297.5 204.5,297.5C 204.5,299.5 204.5,301.5 204.5,303.5C 201.413,303.367 199.413,304.7 198.5,307.5C 198.5,301.5 198.5,295.5 198.5,289.5 Z"/></g>
<g><path style="opacity:0.043" fill="#40400e" d="M 313.5,298.5 C 313.167,299.5 312.5,300.167 311.5,300.5C 311.5,299.167 312.167,298.5 313.5,298.5 Z"/></g>
<g><path style="opacity:0.851" fill="#9ea036" d="M 145.5,299.5 C 148.179,299.525 149.512,300.858 149.5,303.5C 147.833,302.5 146.5,301.167 145.5,299.5 Z"/></g>
<g><path style="opacity:0.251" fill="#5b5911" d="M 161.5,298.5 C 162.906,298.973 163.573,299.973 163.5,301.5C 162.094,301.027 161.427,300.027 161.5,298.5 Z"/></g>
<g><path style="opacity:0.29" fill="#646115" d="M 296.5,298.5 C 296.5,299.167 296.5,299.833 296.5,300.5C 295.833,300.833 295.167,301.167 294.5,301.5C 294.427,299.973 295.094,298.973 296.5,298.5 Z"/></g>
<g><path style="opacity:1" fill="#fbf711" d="M 306.5,297.5 C 306.981,301.349 305.314,303.349 301.5,303.5C 301.528,307.484 299.861,308.484 296.5,306.5C 296.5,304.5 296.5,302.5 296.5,300.5C 298.47,298.366 300.637,296.366 303,294.5C 303.667,295.833 304.333,295.833 305,294.5C 305.232,295.737 305.732,296.737 306.5,297.5 Z"/></g>
<g><path style="opacity:0.78" fill="#8d7759" d="M 193.5,295.5 C 194.5,295.5 195.5,295.5 196.5,295.5C 196.5,295.833 196.5,296.167 196.5,296.5C 193.6,297.443 191.267,299.11 189.5,301.5C 187.397,304.72 185.064,307.72 182.5,310.5C 182.649,309.448 182.483,308.448 182,307.5C 181.583,308.756 180.75,309.423 179.5,309.5C 182.5,303.167 187.167,298.5 193.5,295.5 Z"/></g>
<g><path style="opacity:0.765" fill="#e5ab4d" d="M 197.5,270.5 C 198.49,276.645 198.823,282.978 198.5,289.5C 198.5,295.5 198.5,301.5 198.5,307.5C 198.167,307.5 197.833,307.5 197.5,307.5C 197.815,303.629 197.482,299.962 196.5,296.5C 196.5,296.167 196.5,295.833 196.5,295.5C 197.469,287.252 197.802,278.918 197.5,270.5 Z"/></g>
<g><path style="opacity:1" fill="#e5b43b" d="M 219.5,296.5 C 219.5,298.833 219.5,301.167 219.5,303.5C 217.708,303.634 216.042,303.301 214.5,302.5C 214.5,300.833 214.5,299.167 214.5,297.5C 215.607,295.153 217.274,294.82 219.5,296.5 Z"/></g>
<g><path style="opacity:1" fill="#f6b51c" d="M 229.5,289.5 C 229.5,290.167 229.833,290.5 230.5,290.5C 230.5,296.167 230.5,301.833 230.5,307.5C 230.167,307.5 229.833,307.5 229.5,307.5C 228.292,308.234 226.959,308.567 225.5,308.5C 225.072,305.436 224.406,302.436 223.5,299.5C 223.334,295.154 223.501,290.821 224,286.5C 225.02,287.891 225.853,289.391 226.5,291C 227.788,291.239 228.788,290.739 229.5,289.5 Z"/></g>
<g><path style="opacity:0.212" fill="#545412" d="M 163.5,301.5 C 164.906,301.973 165.573,302.973 165.5,304.5C 164.094,304.027 163.427,303.027 163.5,301.5 Z"/></g>
<g><path style="opacity:0.263" fill="#626222" d="M 294.5,301.5 C 294.573,303.027 293.906,304.027 292.5,304.5C 292.427,302.973 293.094,301.973 294.5,301.5 Z"/></g>
<g><path style="opacity:0.188" fill="#715829" d="M 196.5,296.5 C 197.482,299.962 197.815,303.629 197.5,307.5C 197.5,314.167 197.5,320.833 197.5,327.5C 196.833,327.833 196.167,328.167 195.5,328.5C 196.784,318.53 196.784,308.53 195.5,298.5C 193.466,299.559 191.466,300.559 189.5,301.5C 191.267,299.11 193.6,297.443 196.5,296.5 Z"/></g>
<g><path style="opacity:0.698" fill="#a68956" d="M 214.5,302.5 C 216.042,303.301 217.708,303.634 219.5,303.5C 217.385,306.517 214.718,307.184 211.5,305.5C 212.167,304.167 213.167,303.167 214.5,302.5 Z"/></g>
<g><path style="opacity:0.6" fill="#a0a23f" d="M 149.5,303.5 C 151.153,303.66 152.486,304.326 153.5,305.5C 154.925,306.922 155.925,308.589 156.5,310.5C 153.833,308.5 151.5,306.167 149.5,303.5 Z"/></g>
<g><path style="opacity:1" fill="#f2f135" d="M 152.5,286.5 C 152.833,286.5 153.167,286.5 153.5,286.5C 153.427,288.027 154.094,289.027 155.5,289.5C 155.427,291.027 156.094,292.027 157.5,292.5C 157.427,294.027 158.094,295.027 159.5,295.5C 159.427,297.027 160.094,298.027 161.5,298.5C 161.427,300.027 162.094,301.027 163.5,301.5C 163.427,303.027 164.094,304.027 165.5,304.5C 165.427,306.027 166.094,307.027 167.5,307.5C 167.427,309.027 168.094,310.027 169.5,310.5C 169.427,312.027 170.094,313.027 171.5,313.5C 171.427,315.027 172.094,316.027 173.5,316.5C 174.338,316.842 174.672,317.508 174.5,318.5C 174.5,319.167 174.5,319.833 174.5,320.5C 174.5,321.833 174.5,323.167 174.5,324.5C 173.167,324.5 171.833,324.5 170.5,324.5C 168.821,323.084 167.154,321.75 165.5,320.5C 165.512,317.858 164.179,316.525 161.5,316.5C 160.581,313.911 158.914,311.911 156.5,310.5C 155.925,308.589 154.925,306.922 153.5,305.5C 154.583,305.539 155.583,305.873 156.5,306.5C 157.825,305.209 159.158,303.876 160.5,302.5C 158.677,301.509 157.177,300.176 156,298.5C 154.279,294.696 153.112,290.696 152.5,286.5 Z"/></g>
<g><path style="opacity:1" fill="#f6c518" d="M 263.5,299.5 C 266.13,302.147 268.463,305.147 270.5,308.5C 270.884,312.489 270.217,316.155 268.5,319.5C 268.698,317.425 268.865,315.425 269,313.5C 268.259,314.641 267.425,314.641 266.5,313.5C 265.808,314.025 265.308,314.692 265,315.5C 264.292,314.619 263.458,313.953 262.5,313.5C 261.607,311.703 260.274,310.37 258.5,309.5C 258.657,308.127 258.49,306.793 258,305.5C 256.28,304.616 255.114,303.283 254.5,301.5C 254.5,300.5 254.5,299.5 254.5,298.5C 257.156,299.382 259.656,300.715 262,302.5C 262.513,301.473 263.013,300.473 263.5,299.5 Z"/></g>
<g><path style="opacity:0.231" fill="#535014" d="M 165.5,304.5 C 166.906,304.973 167.573,305.973 167.5,307.5C 166.094,307.027 165.427,306.027 165.5,304.5 Z"/></g>
<g><path style="opacity:0.243" fill="#565716" d="M 292.5,304.5 C 292.573,306.027 291.906,307.027 290.5,307.5C 290.427,305.973 291.094,304.973 292.5,304.5 Z"/></g>
<g><path style="opacity:1" fill="#b89944" d="M 253.5,305.5 C 254.167,305.5 254.5,305.833 254.5,306.5C 255.167,306.5 255.5,306.833 255.5,307.5C 255.5,308.167 255.5,308.833 255.5,309.5C 252.274,306.609 248.607,305.943 244.5,307.5C 245.949,308.172 247.282,308.839 248.5,309.5C 245.918,309.025 243.918,309.692 242.5,311.5C 242.167,311.5 241.833,311.5 241.5,311.5C 241.539,310.244 241.039,309.244 240,308.5C 238.961,309.71 237.794,310.71 236.5,311.5C 237.591,308.572 239.591,306.406 242.5,305C 246.203,304.421 249.869,304.588 253.5,305.5 Z"/></g>
<g><path style="opacity:0.204" fill="#594a1e" d="M 167.5,307.5 C 168.906,307.973 169.573,308.973 169.5,310.5C 168.094,310.027 167.427,309.027 167.5,307.5 Z"/></g>
<g><path style="opacity:0.094" fill="#543909" d="M 248.5,309.5 C 248.5,309.833 248.5,310.167 248.5,310.5C 246.379,310.325 244.379,310.659 242.5,311.5C 243.918,309.692 245.918,309.025 248.5,309.5 Z"/></g>
<g><path style="opacity:1" fill="#ebcc3b" d="M 255.5,309.5 C 255.5,311.833 255.5,314.167 255.5,316.5C 254.167,316.5 252.833,316.5 251.5,316.5C 251.784,314.585 251.451,312.919 250.5,311.5C 250.158,310.662 249.492,310.328 248.5,310.5C 248.5,310.167 248.5,309.833 248.5,309.5C 247.282,308.839 245.949,308.172 244.5,307.5C 248.607,305.943 252.274,306.609 255.5,309.5 Z"/></g>
<g><path style="opacity:0.647" fill="#7e682a" d="M 258.5,309.5 C 260.274,310.37 261.607,311.703 262.5,313.5C 262.5,314.167 262.5,314.833 262.5,315.5C 262.784,317.415 262.451,319.081 261.5,320.5C 261.511,316.536 260.511,312.869 258.5,309.5 Z"/></g>
<g><path style="opacity:0.184" fill="#55551c" d="M 290.5,307.5 C 290.573,309.027 289.906,310.027 288.5,310.5C 288.427,308.973 289.094,307.973 290.5,307.5 Z"/></g>
<g><path style="opacity:0.016" fill="#606016" d="M 156.5,310.5 C 158.914,311.911 160.581,313.911 161.5,316.5C 159.086,315.089 157.419,313.089 156.5,310.5 Z"/></g>
<g><path style="opacity:0.173" fill="#403a10" d="M 169.5,310.5 C 170.906,310.973 171.573,311.973 171.5,313.5C 170.094,313.027 169.427,312.027 169.5,310.5 Z"/></g>
<g><path style="opacity:0.506" fill="#423a2b" d="M 179.5,309.5 C 179.741,311.898 179.074,313.898 177.5,315.5C 177.595,313.214 178.262,311.214 179.5,309.5 Z"/></g>
<g><path style="opacity:0.043" fill="#4c340e" d="M 248.5,310.5 C 249.492,310.328 250.158,310.662 250.5,311.5C 250.784,313.415 250.451,315.081 249.5,316.5C 249.675,314.379 249.341,312.379 248.5,310.5 Z"/></g>
<g><path style="opacity:0.525" fill="#8b7d34" d="M 255.5,309.5 C 257.856,311.937 258.022,314.604 256,317.5C 253.643,319.646 251.143,319.979 248.5,318.5C 250.199,318.66 251.866,318.494 253.5,318C 252.584,317.722 251.918,317.222 251.5,316.5C 252.833,316.5 254.167,316.5 255.5,316.5C 255.5,314.167 255.5,311.833 255.5,309.5 Z"/></g>
<g><path style="opacity:1" fill="#ecee4c" d="M 296.5,300.5 C 296.5,302.5 296.5,304.5 296.5,306.5C 294.956,306.703 293.622,307.37 292.5,308.5C 289.865,312.789 287.198,317.123 284.5,321.5C 284.667,322.167 284.833,322.833 285,323.5C 286.462,321.852 288.295,320.852 290.5,320.5C 290.5,321.5 290.5,322.5 290.5,323.5C 288.236,324.219 285.903,324.552 283.5,324.5C 282.427,322.653 282.427,320.653 283.5,318.5C 284.906,318.027 285.573,317.027 285.5,315.5C 287.408,314.514 288.408,312.848 288.5,310.5C 289.906,310.027 290.573,309.027 290.5,307.5C 291.906,307.027 292.573,306.027 292.5,304.5C 293.906,304.027 294.573,303.027 294.5,301.5C 295.167,301.167 295.833,300.833 296.5,300.5 Z"/></g>
<g><path style="opacity:0.016" fill="#1e1a07" d="M 182.5,310.5 C 182.59,313.152 181.924,315.485 180.5,317.5C 180.41,314.848 181.076,312.515 182.5,310.5 Z"/></g>
<g><path style="opacity:1" fill="#f3d52b" d="M 222.5,299.5 C 222.833,299.5 223.167,299.5 223.5,299.5C 224.406,302.436 225.072,305.436 225.5,308.5C 226.959,308.567 228.292,308.234 229.5,307.5C 229.5,310.833 229.5,314.167 229.5,317.5C 228.778,317.082 228.278,316.416 228,315.5C 227.676,317.569 226.842,317.902 225.5,316.5C 223.312,321.046 222.978,325.712 224.5,330.5C 222.821,330.715 221.821,330.048 221.5,328.5C 222.467,320.586 222.801,312.586 222.5,304.5C 222.5,302.833 222.5,301.167 222.5,299.5 Z"/></g>
<g><path style="opacity:0.231" fill="#493812" d="M 241.5,311.5 C 241.833,311.5 242.167,311.5 242.5,311.5C 240.676,314.846 240.01,318.513 240.5,322.5C 239.359,319.36 239.192,316.027 240,312.5C 240.383,311.944 240.883,311.611 241.5,311.5 Z"/></g>
<g><path style="opacity:0.051" fill="#4f4f14" d="M 302.5,310.5 C 301.167,312.5 299.5,314.167 297.5,315.5C 298.167,312.833 299.833,311.167 302.5,310.5 Z"/></g>
<g><path style="opacity:0.004" fill="#000000" d="M 496.5,313.5 C 497.833,314.167 497.833,314.167 496.5,313.5 Z"/></g>
<g><path style="opacity:1" fill="#f8db1c" d="M 204.5,303.5 C 204.5,312.167 204.5,320.833 204.5,329.5C 202.5,329.5 200.5,329.5 198.5,329.5C 198.5,322.167 198.5,314.833 198.5,307.5C 199.413,304.7 201.413,303.367 204.5,303.5 Z"/></g>
<g><path style="opacity:0.345" fill="#90812e" d="M 221.5,304.5 C 221.833,304.5 222.167,304.5 222.5,304.5C 222.801,312.586 222.467,320.586 221.5,328.5C 221.167,328.5 220.833,328.5 220.5,328.5C 221.403,320.542 221.736,312.542 221.5,304.5 Z"/></g>
<g><path style="opacity:0.796" fill="#828633" d="M 288.5,310.5 C 288.408,312.848 287.408,314.514 285.5,315.5C 285.75,313.326 286.75,311.659 288.5,310.5 Z"/></g>
<g><path style="opacity:0.004" fill="#000000" d="M 314.5,314.5 C 315.833,315.167 315.833,315.167 314.5,314.5 Z"/></g>
<g><path style="opacity:0.004" fill="#000000" d="M 347.5,314.5 C 348.833,315.167 348.833,315.167 347.5,314.5 Z"/></g>
<g><path style="opacity:0.129" fill="#39340d" d="M 171.5,313.5 C 172.906,313.973 173.573,314.973 173.5,316.5C 172.094,316.027 171.427,315.027 171.5,313.5 Z"/></g>
<g><path style="opacity:1" fill="#f7f81b" d="M 296.5,306.5 C 296.414,308.394 296.081,310.394 295.5,312.5C 294.476,313.853 293.143,314.52 291.5,314.5C 291.5,316.167 291.5,317.833 291.5,319.5C 290.833,319.5 290.5,319.833 290.5,320.5C 288.295,320.852 286.462,321.852 285,323.5C 284.833,322.833 284.667,322.167 284.5,321.5C 287.198,317.123 289.865,312.789 292.5,308.5C 293.622,307.37 294.956,306.703 296.5,306.5 Z"/></g>
<g><path style="opacity:1" fill="#f4e326" d="M 262.5,313.5 C 263.458,313.953 264.292,314.619 265,315.5C 265.308,314.692 265.808,314.025 266.5,313.5C 267.425,314.641 268.259,314.641 269,313.5C 268.865,315.425 268.698,317.425 268.5,319.5C 266.716,321.41 265.716,323.744 265.5,326.5C 264.448,326.649 263.448,326.483 262.5,326C 263.82,322.399 263.82,318.899 262.5,315.5C 262.5,314.833 262.5,314.167 262.5,313.5 Z"/></g>
<g><path style="opacity:0.839" fill="#afab46" d="M 161.5,316.5 C 164.179,316.525 165.512,317.858 165.5,320.5C 163.833,319.5 162.5,318.167 161.5,316.5 Z"/></g>
<g><path style="opacity:0.78" fill="#d5c67b" d="M 250.5,311.5 C 251.451,312.919 251.784,314.585 251.5,316.5C 251.918,317.222 252.584,317.722 253.5,318C 251.866,318.494 250.199,318.66 248.5,318.5C 248.328,317.508 248.662,316.842 249.5,316.5C 250.451,315.081 250.784,313.415 250.5,311.5 Z"/></g>
<g><path style="opacity:0.263" fill="#605519" d="M 285.5,315.5 C 285.573,317.027 284.906,318.027 283.5,318.5C 283.427,316.973 284.094,315.973 285.5,315.5 Z"/></g>
<g><path style="opacity:0.833" fill="#eadd59" d="M 229.5,307.5 C 229.833,307.5 230.167,307.5 230.5,307.5C 230.5,314.167 230.5,320.833 230.5,327.5C 230.715,329.179 230.048,330.179 228.5,330.5C 229.373,326.232 229.706,321.898 229.5,317.5C 229.5,314.167 229.5,310.833 229.5,307.5 Z"/></g>
<g><path style="opacity:0.004" fill="#000000" d="M 326.5,319.5 C 327.833,320.167 327.833,320.167 326.5,319.5 Z"/></g>
<g><path style="opacity:0.004" fill="#000000" d="M 162.5,320.5 C 163.833,321.167 163.833,321.167 162.5,320.5 Z"/></g>
<g><path style="opacity:0.796" fill="#c4be8e" d="M 182.5,310.5 C 181.076,312.515 180.41,314.848 180.5,317.5C 179.833,322.167 179.167,326.833 178.5,331.5C 177.671,326.547 177.337,321.547 177.5,316.5C 177.5,316.167 177.5,315.833 177.5,315.5C 179.074,313.898 179.741,311.898 179.5,309.5C 180.75,309.423 181.583,308.756 182,307.5C 182.483,308.448 182.649,309.448 182.5,310.5 Z"/></g>
<g><path style="opacity:0.294" fill="#7a6827" d="M 205.5,295.5 C 205.833,295.5 206.167,295.5 206.5,295.5C 206.26,306.531 206.593,317.531 207.5,328.5C 206.833,328.167 206.167,327.833 205.5,327.5C 205.5,316.833 205.5,306.167 205.5,295.5 Z"/></g>
<g><path style="opacity:0.659" fill="#807f32" d="M 295.5,317.5 C 293.823,319.54 292.156,321.54 290.5,323.5C 290.5,322.5 290.5,321.5 290.5,320.5C 290.5,319.833 290.833,319.5 291.5,319.5C 292.605,318.4 293.938,317.733 295.5,317.5 Z"/></g>
<g><path style="opacity:0.004" fill="#000000" d="M 480.5,320.5 C 481.833,321.167 481.833,321.167 480.5,320.5 Z"/></g>
<g><path style="opacity:0.129" fill="#504512" d="M 271.5,318.5 C 271.539,321.089 270.539,323.089 268.5,324.5C 268.992,322.181 269.992,320.181 271.5,318.5 Z"/></g>
<g><path style="opacity:0.267" fill="#6d6d23" d="M 165.5,320.5 C 167.154,321.75 168.821,323.084 170.5,324.5C 170.5,325.167 170.5,325.833 170.5,326.5C 168.11,325.109 166.443,323.109 165.5,320.5 Z"/></g>
<g><path style="opacity:0.11" fill="#3c3913" d="M 235.5,321.5 C 236.69,323.869 238.357,325.869 240.5,327.5C 240.833,328.167 241.167,328.833 241.5,329.5C 237.635,328.294 235.635,325.627 235.5,321.5 Z"/></g>
<g><path style="opacity:0.898" fill="#b7ae48" d="M 270.5,308.5 C 270.833,308.5 271.167,308.5 271.5,308.5C 272.833,311.833 272.833,315.167 271.5,318.5C 269.992,320.181 268.992,322.181 268.5,324.5C 266.557,327.471 263.891,329.471 260.5,330.5C 259.5,330.5 258.5,330.5 257.5,330.5C 253.989,330.101 250.656,329.434 247.5,328.5C 250.167,328.5 252.833,328.5 255.5,328.5C 259.68,327.99 261.68,325.656 261.5,321.5C 261.5,321.167 261.5,320.833 261.5,320.5C 262.451,319.081 262.784,317.415 262.5,315.5C 263.82,318.899 263.82,322.399 262.5,326C 263.448,326.483 264.448,326.649 265.5,326.5C 265.716,323.744 266.716,321.41 268.5,319.5C 270.217,316.155 270.884,312.489 270.5,308.5 Z"/></g>
<g><path style="opacity:0.975" fill="#bfbd5c" d="M 174.5,320.5 C 177.019,322.359 177.019,324.359 174.5,326.5C 173.167,327.833 171.833,327.833 170.5,326.5C 170.5,325.833 170.5,325.167 170.5,324.5C 171.833,324.5 173.167,324.5 174.5,324.5C 174.5,323.167 174.5,321.833 174.5,320.5 Z"/></g>
<g><path style="opacity:1" fill="#f9eb1c" d="M 229.5,317.5 C 229.706,321.898 229.373,326.232 228.5,330.5C 227.167,330.5 225.833,330.5 224.5,330.5C 222.978,325.712 223.312,321.046 225.5,316.5C 226.842,317.902 227.676,317.569 228,315.5C 228.278,316.416 228.778,317.082 229.5,317.5 Z"/></g>
<g><path style="opacity:0.945" fill="#cec361" d="M 241.5,311.5 C 240.883,311.611 240.383,311.944 240,312.5C 239.192,316.027 239.359,319.36 240.5,322.5C 241.494,324.334 241.494,326.001 240.5,327.5C 238.357,325.869 236.69,323.869 235.5,321.5C 234.097,317.936 234.431,314.602 236.5,311.5C 237.794,310.71 238.961,309.71 240,308.5C 241.039,309.244 241.539,310.244 241.5,311.5 Z"/></g>
<g><path style="opacity:0.682" fill="#6c6623" d="M 261.5,321.5 C 261.68,325.656 259.68,327.99 255.5,328.5C 258.247,326.757 260.247,324.424 261.5,321.5 Z"/></g>
<g><path style="opacity:0.557" fill="#6d6c34" d="M 283.5,318.5 C 282.427,320.653 282.427,322.653 283.5,324.5C 284.287,326.104 285.62,326.771 287.5,326.5C 284.898,327.969 282.731,327.302 281,324.5C 280.458,321.918 281.292,319.918 283.5,318.5 Z"/></g>
<g><path style="opacity:0.965" fill="#aeac50" d="M 290.5,323.5 C 289.833,324.833 288.833,325.833 287.5,326.5C 285.62,326.771 284.287,326.104 283.5,324.5C 285.903,324.552 288.236,324.219 290.5,323.5 Z"/></g>
<g><path style="opacity:0.929" fill="#7f7f40" d="M 240.5,322.5 C 242.234,325.2 244.568,327.2 247.5,328.5C 245.801,328.34 244.134,328.506 242.5,329C 243.381,329.708 244.047,330.542 244.5,331.5C 242.973,331.573 241.973,330.906 241.5,329.5C 241.167,328.833 240.833,328.167 240.5,327.5C 241.494,326.001 241.494,324.334 240.5,322.5 Z"/></g>
<g><path style="opacity:0.908" fill="#f1e655" d="M 205.5,295.5 C 205.5,306.167 205.5,316.833 205.5,327.5C 205.5,328.5 205.5,329.5 205.5,330.5C 202.15,330.665 198.817,330.498 195.5,330C 196.756,329.583 197.423,328.75 197.5,327.5C 197.5,320.833 197.5,314.167 197.5,307.5C 197.833,307.5 198.167,307.5 198.5,307.5C 198.5,314.833 198.5,322.167 198.5,329.5C 200.5,329.5 202.5,329.5 204.5,329.5C 204.5,320.833 204.5,312.167 204.5,303.5C 204.5,301.5 204.5,299.5 204.5,297.5C 204.328,296.508 204.662,295.842 205.5,295.5 Z"/></g>
<g><path style="opacity:0.169" fill="#a2a17a" d="M 232.5,328.5 C 235.051,328.668 235.718,329.668 234.5,331.5C 233.5,331.5 232.5,331.5 231.5,331.5C 232.11,330.609 232.443,329.609 232.5,328.5 Z"/></g>
<g><path style="opacity:0.537" fill="#90904c" d="M 197.5,327.5 C 197.423,328.75 196.756,329.583 195.5,330C 198.817,330.498 202.15,330.665 205.5,330.5C 205.5,329.5 205.5,328.5 205.5,327.5C 206.167,327.833 206.833,328.167 207.5,328.5C 208.791,328.263 209.791,328.596 210.5,329.5C 210.672,330.492 210.338,331.158 209.5,331.5C 204.552,332.559 199.552,332.726 194.5,332C 191.936,330.264 192.269,329.098 195.5,328.5C 196.167,328.167 196.833,327.833 197.5,327.5 Z"/></g>
<g><path style="opacity:0.078" fill="#202018" d="M 210.5,329.5 C 213.012,330.216 213.012,331.216 210.5,332.5C 209.893,332.376 209.56,332.043 209.5,331.5C 210.338,331.158 210.672,330.492 210.5,329.5 Z"/></g>
<g><path style="opacity:0.584" fill="#c5c364" d="M 230.5,327.5 C 231.167,327.833 231.833,328.167 232.5,328.5C 232.443,329.609 232.11,330.609 231.5,331.5C 226.786,331.827 222.12,331.493 217.5,330.5C 218.602,329.824 219.602,329.158 220.5,328.5C 220.833,328.5 221.167,328.5 221.5,328.5C 221.821,330.048 222.821,330.715 224.5,330.5C 225.833,330.5 227.167,330.5 228.5,330.5C 230.048,330.179 230.715,329.179 230.5,327.5 Z"/></g>
<g><path style="opacity:0.918" fill="#e6e495" d="M 247.5,328.5 C 250.656,329.434 253.989,330.101 257.5,330.5C 254.713,331.477 251.713,331.81 248.5,331.5C 247.167,331.5 245.833,331.5 244.5,331.5C 244.047,330.542 243.381,329.708 242.5,329C 244.134,328.506 245.801,328.34 247.5,328.5 Z"/></g>
<g><path style="opacity:0.039" fill="#231f0b" d="M 220.5,328.5 C 219.602,329.158 218.602,329.824 217.5,330.5C 222.12,331.493 226.786,331.827 231.5,331.5C 232.5,331.5 233.5,331.5 234.5,331.5C 228.681,332.653 222.681,332.819 216.5,332C 215.167,331 215.167,330 216.5,329C 217.793,328.51 219.127,328.343 220.5,328.5 Z"/></g>
<g><path style="opacity:0.518" fill="#6e6b43" d="M 257.5,330.5 C 258.5,330.5 259.5,330.5 260.5,330.5C 259.22,331.931 257.553,332.598 255.5,332.5C 252.941,332.802 250.607,332.468 248.5,331.5C 251.713,331.81 254.713,331.477 257.5,330.5 Z"/></g>
<g><path style="opacity:0.031" fill="#2e2b14" d="M 177.5,316.5 C 177.337,321.547 177.671,326.547 178.5,331.5C 179.428,335.362 180.928,339.029 183,342.5C 185.127,344.114 186.627,346.114 187.5,348.5C 180.772,343.206 176.939,336.206 176,327.5C 175.617,326.944 175.117,326.611 174.5,326.5C 177.019,324.359 177.019,322.359 174.5,320.5C 174.5,319.833 174.5,319.167 174.5,318.5C 175.117,318.611 175.617,318.944 176,319.5C 176.232,318.263 176.732,317.263 177.5,316.5 Z"/></g>
<g><path style="opacity:0.023" fill="#151007" d="M 244.5,331.5 C 245.833,331.5 247.167,331.5 248.5,331.5C 250.607,332.468 252.941,332.802 255.5,332.5C 251.71,333.902 248.044,333.569 244.5,331.5 Z"/></g>
<g><path style="opacity:0.004" fill="#000000" d="M 169.5,334.5 C 170.833,335.167 170.833,335.167 169.5,334.5 Z"/></g>
<g><path style="opacity:0.02" fill="#19190c" d="M 180.5,329.5 C 182.631,334.542 184.964,339.542 187.5,344.5C 183.309,340.448 180.976,335.448 180.5,329.5 Z"/></g>
<g><path style="opacity:0.004" fill="#000000" d="M 293.5,337.5 C 294.833,338.167 294.833,338.167 293.5,337.5 Z"/></g>
<g><path style="opacity:0.678" fill="#8d9080" d="M 287.5,339.5 C 286.508,339.328 285.842,339.662 285.5,340.5C 279.16,338.908 273.16,339.575 267.5,342.5C 267.158,343.338 266.492,343.672 265.5,343.5C 263.847,343.66 262.514,344.326 261.5,345.5C 258.515,346.326 255.849,347.659 253.5,349.5C 252.791,350.404 251.791,350.737 250.5,350.5C 245.467,352.387 240.301,354.054 235,355.5C 234.167,355.333 233.333,355.167 232.5,355C 233.416,354.722 234.082,354.222 234.5,353.5C 236.786,353.405 238.786,352.738 240.5,351.5C 241.209,350.596 242.209,350.263 243.5,350.5C 247.277,350.066 250.61,348.733 253.5,346.5C 253.842,345.662 254.508,345.328 255.5,345.5C 260.251,344.29 264.584,342.29 268.5,339.5C 272.044,338.69 275.544,337.69 279,336.5C 282.089,337.028 284.923,338.028 287.5,339.5 Z"/></g>
<g><path style="opacity:0.031" fill="#12130c" d="M 285.5,340.5 C 287.144,341.316 288.31,342.65 289,344.5C 290.472,350.076 289.305,354.909 285.5,359C 283.866,359.494 282.199,359.66 280.5,359.5C 281.925,358.078 282.925,356.411 283.5,354.5C 288.254,353.382 289.754,350.382 288,345.5C 285.927,342.349 282.927,340.682 279,340.5C 275.442,340.875 272.109,341.875 269,343.5C 268.617,342.944 268.117,342.611 267.5,342.5C 273.16,339.575 279.16,338.908 285.5,340.5 Z"/></g>
<g><path style="opacity:0.024" fill="#27281a" d="M 287.5,339.5 C 289.833,339.833 291.167,341.167 291.5,343.5C 289.833,342.5 288.5,341.167 287.5,339.5 Z"/></g>
<g><path style="opacity:0.824" fill="#a0a188" d="M 180.5,317.5 C 180.5,321.5 180.5,325.5 180.5,329.5C 180.976,335.448 183.309,340.448 187.5,344.5C 188.5,344.833 189.167,345.5 189.5,346.5C 190.262,348.262 191.596,349.262 193.5,349.5C 194.659,351.25 196.326,352.25 198.5,352.5C 202.018,354.966 206.018,355.966 210.5,355.5C 216.005,356.653 221.672,356.653 227.5,355.5C 232.774,355.687 232.774,356.187 227.5,357C 219.465,357.736 211.465,357.569 203.5,356.5C 201.585,356.784 199.919,356.451 198.5,355.5C 195.011,352.92 191.344,350.587 187.5,348.5C 186.627,346.114 185.127,344.114 183,342.5C 180.928,339.029 179.428,335.362 178.5,331.5C 179.167,326.833 179.833,322.167 180.5,317.5 Z"/></g>
<g><path style="opacity:0.043" fill="#1e1f17" d="M 268.5,339.5 C 264.584,342.29 260.251,344.29 255.5,345.5C 259.416,342.71 263.749,340.71 268.5,339.5 Z"/></g>
<g><path style="opacity:0.004" fill="#000000" d="M 320.5,343.5 C 321.833,344.167 321.833,344.167 320.5,343.5 Z"/></g>
<g><path style="opacity:0.01" fill="#191d17" d="M 265.5,343.5 C 264.713,345.104 263.38,345.771 261.5,345.5C 262.514,344.326 263.847,343.66 265.5,343.5 Z"/></g>
<g><path style="opacity:0.02" fill="#0f100b" d="M 261.5,345.5 C 259.421,347.873 256.754,349.206 253.5,349.5C 255.849,347.659 258.515,346.326 261.5,345.5 Z"/></g>
<g><path style="opacity:0.039" fill="#1e2617" d="M 189.5,346.5 C 191.404,346.738 192.738,347.738 193.5,349.5C 191.596,349.262 190.262,348.262 189.5,346.5 Z"/></g>
<g><path style="opacity:0.055" fill="#181912" d="M 253.5,346.5 C 250.61,348.733 247.277,350.066 243.5,350.5C 246.335,348.215 249.668,346.882 253.5,346.5 Z"/></g>
<g><path style="opacity:0.086" fill="#0b0d03" d="M 273.5,346.5 C 272.833,347.833 271.833,348.833 270.5,349.5C 270.5,347.5 271.5,346.5 273.5,346.5 Z"/></g>
<g><path style="opacity:0.212" fill="#242519" d="M 193.5,349.5 C 195.674,349.75 197.341,350.75 198.5,352.5C 196.326,352.25 194.659,351.25 193.5,349.5 Z"/></g>
<g><path style="opacity:0.051" fill="#202318" d="M 187.5,348.5 C 191.344,350.587 195.011,352.92 198.5,355.5C 194.024,354.429 190.357,352.096 187.5,348.5 Z"/></g>
<g><path style="opacity:0.033" fill="#0d0e04" d="M 240.5,351.5 C 238.786,352.738 236.786,353.405 234.5,353.5C 236.102,351.926 238.102,351.259 240.5,351.5 Z"/></g>
<g><path style="opacity:0.137" fill="#2b2c24" d="M 198.5,352.5 C 202.614,353.51 206.614,354.51 210.5,355.5C 206.018,355.966 202.018,354.966 198.5,352.5 Z"/></g>
<g><path style="opacity:0.082" fill="#181b11" d="M 270.5,349.5 C 269.871,354.909 271.871,358.909 276.5,361.5C 269.795,359.827 267.795,355.827 270.5,349.5 Z"/></g>
<g><path style="opacity:0.029" fill="#191910" d="M 273.5,346.5 C 280.532,344.18 283.866,346.847 283.5,354.5C 281.473,354.662 279.473,354.495 277.5,354C 277.347,349.317 276.014,349.317 273.5,354C 275.342,356.074 277.342,357.907 279.5,359.5C 272.43,358.593 270.763,355.093 274.5,349C 275.793,348.51 277.127,348.343 278.5,348.5C 278.215,350.288 278.548,351.955 279.5,353.5C 282.119,351.423 282.119,349.257 279.5,347C 277.527,346.505 275.527,346.338 273.5,346.5 Z"/></g>
<g><path style="opacity:0.082" fill="#1d1f15" d="M 250.5,350.5 C 249.942,351.79 248.942,352.623 247.5,353C 235.837,357.449 223.837,359.616 211.5,359.5C 208.538,358.991 205.871,357.991 203.5,356.5C 211.465,357.569 219.465,357.736 227.5,357C 232.774,356.187 232.774,355.687 227.5,355.5C 221.672,356.653 216.005,356.653 210.5,355.5C 218.562,355.492 226.562,354.825 234.5,353.5C 234.082,354.222 233.416,354.722 232.5,355C 233.333,355.167 234.167,355.333 235,355.5C 240.301,354.054 245.467,352.387 250.5,350.5 Z"/></g>
<g><path style="opacity:0.827" fill="#9fa187" d="M 287.5,339.5 C 288.5,341.167 289.833,342.5 291.5,343.5C 292.972,345.117 293.639,347.117 293.5,349.5C 293.333,350.833 293.167,352.167 293,353.5C 292.617,354.056 292.117,354.389 291.5,354.5C 290.326,355.514 289.66,356.847 289.5,358.5C 285.6,361.037 281.266,362.037 276.5,361.5C 271.871,358.909 269.871,354.909 270.5,349.5C 271.833,348.833 272.833,347.833 273.5,346.5C 275.527,346.338 277.527,346.505 279.5,347C 282.119,349.257 282.119,351.423 279.5,353.5C 278.548,351.955 278.215,350.288 278.5,348.5C 277.127,348.343 275.793,348.51 274.5,349C 270.763,355.093 272.43,358.593 279.5,359.5C 279.833,359.5 280.167,359.5 280.5,359.5C 282.199,359.66 283.866,359.494 285.5,359C 289.305,354.909 290.472,350.076 289,344.5C 288.31,342.65 287.144,341.316 285.5,340.5C 285.842,339.662 286.508,339.328 287.5,339.5 Z M 283.5,354.5 C 282.925,356.411 281.925,358.078 280.5,359.5C 280.167,359.5 279.833,359.5 279.5,359.5C 277.342,357.907 275.342,356.074 273.5,354C 276.014,349.317 277.347,349.317 277.5,354C 279.473,354.495 281.473,354.662 283.5,354.5 Z"/></g>
<g><path style="opacity:0.047" fill="#222216" d="M 291.5,354.5 C 291.771,356.38 291.104,357.713 289.5,358.5C 289.66,356.847 290.326,355.514 291.5,354.5 Z"/></g>
<g><path style="opacity:0.149" fill="#12120c" d="M 289.5,358.5 C 285.921,363.48 281.588,364.48 276.5,361.5C 281.266,362.037 285.6,361.037 289.5,358.5 Z"/></g>
<g><path style="opacity:0.004" fill="#000000" d="M 87.5,368.5 C 88.8333,369.167 88.8333,369.167 87.5,368.5 Z"/></g>
<g><path style="opacity:0.004" fill="#000000" d="M 373.5,369.5 C 374.833,370.167 374.833,370.167 373.5,369.5 Z"/></g>
<g><path style="opacity:0.004" fill="#000000" d="M 393.5,376.5 C 394.833,377.167 394.833,377.167 393.5,376.5 Z"/></g>
<g><path style="opacity:0.004" fill="#000000" d="M 80.5,385.5 C 81.8333,386.167 81.8333,386.167 80.5,385.5 Z"/></g>
<g><path style="opacity:0.004" fill="#000000" d="M 443.5,390.5 C 444.833,391.167 444.833,391.167 443.5,390.5 Z"/></g>
<g><path style="opacity:0.004" fill="#000000" d="M 72.5,401.5 C 73.8333,402.167 73.8333,402.167 72.5,401.5 Z"/></g>
<g><path style="opacity:0.004" fill="#000000" d="M 229.5,409.5 C 230.833,410.167 230.833,410.167 229.5,409.5 Z"/></g>
<g><path style="opacity:0.004" fill="#000000" d="M 109.5,411.5 C 110.833,412.167 110.833,412.167 109.5,411.5 Z"/></g>
<g><path style="opacity:0.004" fill="#000000" d="M 146.5,418.5 C 147.833,419.167 147.833,419.167 146.5,418.5 Z"/></g>
<g><path style="opacity:0.004" fill="#000000" d="M 426.5,422.5 C 427.833,423.167 427.833,423.167 426.5,422.5 Z"/></g>
<g><path style="opacity:0.004" fill="#000000" d="M 349.5,429.5 C 350.833,430.167 350.833,430.167 349.5,429.5 Z"/></g>
<g><path style="opacity:0.004" fill="#000000" d="M 60.5,448.5 C 61.8333,449.167 61.8333,449.167 60.5,448.5 Z"/></g>
<g><path style="opacity:0.004" fill="#000000" d="M 367.5,452.5 C 368.833,453.167 368.833,453.167 367.5,452.5 Z"/></g>
<g><path style="opacity:0.004" fill="#000000" d="M 297.5,461.5 C 298.833,462.167 298.833,462.167 297.5,461.5 Z"/></g>
<g><path style="opacity:0.004" fill="#000000" d="M 465.5,461.5 C 466.833,462.167 466.833,462.167 465.5,461.5 Z"/></g>
<g><path style="opacity:0.004" fill="#000000" d="M 175.5,463.5 C 176.833,464.167 176.833,464.167 175.5,463.5 Z"/></g>
<g><path style="opacity:0.004" fill="#000000" d="M 417.5,472.5 C 418.833,473.167 418.833,473.167 417.5,472.5 Z"/></g>
<g><path style="opacity:0.004" fill="#000000" d="M 351.5,475.5 C 352.833,476.167 352.833,476.167 351.5,475.5 Z"/></g>
<g><path style="opacity:0.004" fill="#000000" d="M 331.5,478.5 C 332.833,479.167 332.833,479.167 331.5,478.5 Z"/></g>
<g><path style="opacity:0.004" fill="#000000" d="M 410.5,478.5 C 411.833,479.167 411.833,479.167 410.5,478.5 Z"/></g>
<g><path style="opacity:0.004" fill="#000000" d="M 458.5,485.5 C 459.833,486.167 459.833,486.167 458.5,485.5 Z"/></g>
<g><path style="opacity:0.004" fill="#000000" d="M 415.5,488.5 C 416.833,489.167 416.833,489.167 415.5,488.5 Z"/></g>
</svg>
